<?xml version="1.0" standalone="no"?>
<!DOCTYPE svg PUBLIC "-//W3C//DTD SVG 20010904//EN"
 "http://www.w3.org/TR/2001/REC-SVG-20010904/DTD/svg10.dtd">
<svg version="1.0" xmlns="http://www.w3.org/2000/svg"
 width="1280.000000pt" height="329.000000pt" viewBox="0 0 1280.000000 329.000000"
 preserveAspectRatio="xMidYMid meet">

<g transform="translate(0.000000,329.000000) scale(0.100000,-0.100000)"
fill="#000000" stroke="none">
<path d="M0 2819 c0 -443 1 -470 18 -467 11 2 17 13 17 30 1 29 54 91 76 87 8
-1 21 1 29 4 8 3 69 9 135 13 66 3 143 8 170 9 28 2 58 4 68 4 23 1 22 19 -3
23 -14 2 -17 7 -11 17 7 11 29 14 86 13 42 -2 74 1 72 5 -3 5 36 8 86 7 108
-1 147 4 147 20 0 7 16 18 36 25 31 11 38 11 55 -5 11 -10 19 -12 19 -6 0 7
-4 12 -10 12 -5 0 -10 5 -10 10 0 6 11 10 25 10 14 0 25 -6 25 -12 0 -10 2
-10 8 -1 5 8 50 14 125 18 103 6 117 5 117 -9 0 -12 10 -16 40 -16 29 0 40 4
40 15 0 8 4 15 9 15 5 0 11 -7 15 -15 3 -8 15 -15 27 -15 14 0 19 5 16 14 -7
17 25 23 110 22 35 -1 63 1 63 4 0 5 20 6 123 9 26 1 37 6 37 16 0 8 7 15 15
15 8 0 12 6 9 14 -4 10 10 15 57 18 36 3 65 10 67 16 2 7 23 12 48 12 24 0 44
4 44 9 0 5 21 3 47 -5 34 -10 49 -11 59 -3 8 6 23 9 34 6 11 -3 20 -1 20 4 0
5 57 9 126 9 97 0 125 -3 121 -12 -3 -9 10 -14 44 -16 45 -2 66 10 37 21 -7 3
42 5 110 4 120 -2 122 -2 122 20 0 28 41 41 82 25 19 -7 40 -7 61 -1 41 12 50
11 42 -1 -3 -5 -2 -10 4 -10 5 0 14 7 19 15 7 14 77 32 152 39 14 2 34 5 45 9
16 5 165 15 310 22 17 1 38 5 49 10 12 5 21 4 26 -5 5 -9 19 -11 44 -6 20 4
34 11 31 15 -2 5 3 15 12 22 14 12 16 12 9 0 -5 -8 -3 -17 5 -22 20 -12 30
-11 27 4 -3 14 3 17 30 17 15 -1 15 -2 -2 -15 -17 -13 -18 -15 -3 -15 10 0 17
-8 17 -20 0 -17 7 -20 40 -20 29 0 40 4 40 15 0 13 21 15 129 15 76 0 141 5
158 12 15 6 32 10 37 9 5 -1 26 5 48 14 21 8 54 15 73 15 19 0 35 5 35 10 0 6
7 10 16 10 9 0 12 -5 8 -11 -5 -9 6 -10 42 -6 27 3 77 9 112 13 34 4 62 11 62
15 0 13 78 11 82 -2 5 -16 91 -30 100 -17 9 16 213 24 222 9 9 -14 76 -15 76
0 0 12 43 1 48 -12 5 -13 30 -11 35 4 3 10 9 10 26 0 24 -15 32 -16 28 -5 -1
4 5 15 13 24 11 12 21 13 39 6 14 -5 50 -8 80 -7 31 1 91 1 134 0 66 -1 77 -3
77 -18 1 -15 4 -13 20 7 51 65 64 72 115 64 28 -4 45 -11 45 -20 0 -8 6 -14
13 -14 8 0 7 -3 -3 -10 -9 -6 54 -9 175 -8 105 1 215 0 245 -1 30 -1 163 0
295 3 132 3 306 6 387 8 140 3 148 4 148 23 0 17 6 20 39 19 42 -1 64 -11 56
-24 -6 -10 59 -26 86 -22 9 2 19 -4 22 -12 5 -11 28 -14 119 -12 96 2 113 5
116 19 2 12 14 17 38 17 36 0 47 15 17 23 -10 3 14 5 54 6 66 1 101 -10 71
-22 -7 -3 11 -6 40 -6 34 -1 52 -5 52 -13 0 -10 3 -10 9 0 6 10 28 13 82 10
72 -4 74 -5 77 -31 4 -36 35 -50 90 -44 31 3 50 1 59 -9 12 -12 9 -14 -26 -14
-23 0 -41 -4 -41 -10 0 -5 18 -10 40 -10 22 0 40 -4 40 -8 0 -5 14 -7 30 -4
25 3 30 1 30 -15 0 -17 7 -20 53 -19 43 1 52 -2 49 -16 -3 -21 15 -33 31 -20
15 12 77 14 77 2 0 -5 20 -8 45 -8 64 0 105 -11 105 -28 0 -12 11 -14 53 -10
38 4 45 3 27 -3 -21 -8 -17 -9 22 -8 25 1 44 6 40 11 -3 5 5 6 19 1 13 -4 36
-8 51 -9 14 0 30 -4 34 -9 4 -4 56 -7 115 -7 104 0 107 -1 102 -21 -6 -20 -3
-21 37 -14 37 6 42 5 37 -9 -3 -8 -1 -19 5 -22 7 -4 98 -8 203 -9 190 -2 270
-9 280 -25 3 -4 -5 -6 -17 -3 -22 4 -23 4 -4 -11 25 -20 35 -20 42 -1 4 9 19
15 39 15 41 0 67 -9 59 -21 -3 -5 -1 -9 4 -9 6 0 12 7 16 15 7 19 53 3 73 -25
9 -12 20 -17 31 -13 14 5 15 3 5 -8 -15 -15 -17 -49 -4 -49 5 0 11 7 15 15 3
8 16 15 28 15 19 0 20 2 8 10 -13 8 -12 10 3 10 9 0 17 -6 17 -12 0 -10 22
-13 78 -12 102 2 102 2 96 19 -4 11 0 15 16 15 19 0 20 -3 10 -15 -10 -12 -7
-14 21 -13 19 0 62 -3 97 -7 40 -4 62 -3 62 3 0 6 -6 13 -13 15 -9 4 -9 6 1 6
15 1 67 -36 67 -47 0 -9 48 -11 102 -4 24 2 40 9 37 13 -3 5 2 9 10 9 9 0 16
-4 16 -10 0 -5 16 -10 35 -10 19 0 35 -5 35 -11 0 -7 17 -9 53 -4 33 4 47 3
38 -3 -21 -15 3 -23 47 -16 29 4 40 2 45 -8 3 -10 22 -15 54 -17 26 -1 50 -6
51 -11 2 -6 16 -10 32 -10 39 0 52 -21 54 -85 1 -53 11 -73 18 -37 3 14 5 13
10 -6 3 -12 3 -20 -1 -18 -3 2 -14 -2 -24 -9 -12 -8 -14 -15 -8 -20 6 -3 11
-15 11 -26 0 -10 5 -19 10 -19 6 0 10 -7 10 -17 0 -15 -2 -15 -19 1 -11 10
-25 15 -30 11 -11 -6 -16 30 -13 83 0 12 -3 22 -9 22 -10 0 -13 -27 -10 -87 2
-30 -1 -43 -10 -43 -7 0 -5 -6 7 -15 26 -19 35 -19 28 2 -5 17 -5 17 6 0 16
-24 4 -40 -21 -27 -27 15 -39 4 -33 -29 6 -26 4 -28 -24 -27 -17 0 -28 4 -25
9 2 4 -5 7 -17 7 -20 0 -20 -1 -5 -30 14 -28 13 -35 -8 -31 -5 1 -6 -3 -2 -9
3 -6 10 -8 14 -6 4 3 18 -6 30 -20 l23 -26 -31 7 c-20 4 -31 3 -31 -4 0 -6 5
-11 11 -11 6 0 9 -7 5 -15 -3 -9 3 -19 14 -25 11 -6 20 -15 20 -21 0 -5 -13
-3 -30 6 -16 9 -30 12 -30 7 0 -14 23 -32 42 -32 10 0 18 -4 18 -10 0 -5 -7
-10 -15 -10 -8 0 -15 -8 -15 -17 0 -14 2 -15 9 -4 6 9 11 10 15 2 4 -6 4 -16
1 -21 -3 -5 1 -10 9 -10 10 0 13 6 9 18 -5 13 -3 14 6 6 10 -9 10 -17 2 -33
-10 -18 -15 -19 -36 -9 -14 6 -25 15 -25 20 0 6 -13 28 -28 51 -16 23 -41 62
-57 87 -15 25 -36 56 -45 70 -9 14 -25 40 -34 58 -14 27 -115 172 -120 172 -1
0 -15 -4 -32 -9 -17 -5 -50 -5 -72 -1 -24 4 -43 3 -44 -2 -2 -5 -35 -14 -73
-20 -68 -10 -75 -9 -270 41 -110 28 -228 60 -263 70 l-63 20 -66 -47 c-104
-75 -153 -111 -288 -211 -134 -99 -161 -115 -212 -126 -45 -9 -41 5 9 35 22
14 46 30 52 35 6 6 72 53 146 105 133 93 240 169 292 209 14 12 32 21 39 21 7
0 21 7 31 17 19 17 22 17 193 -32 28 -8 106 -28 175 -45 69 -17 150 -38 180
-45 73 -19 106 -19 65 -1 -34 15 -296 82 -395 101 -36 7 -87 20 -115 29 -95
32 -122 31 -164 -6 -75 -65 -117 -98 -176 -138 -33 -22 -76 -51 -95 -64 -20
-13 -56 -27 -80 -30 -25 -4 -53 -10 -63 -12 -11 -4 -17 0 -17 11 0 10 -5 15
-13 12 -9 -3 -20 12 -32 45 -10 27 -23 52 -30 54 -6 3 -45 -4 -86 -15 -41 -12
-132 -32 -204 -46 -71 -14 -181 -39 -245 -55 -63 -17 -234 -57 -379 -91 -209
-47 -266 -57 -272 -47 -7 10 -12 9 -26 -5 -11 -10 -13 -17 -5 -17 7 0 12 -9
12 -20 0 -11 -4 -20 -10 -20 -5 0 -10 7 -10 16 0 13 -7 15 -35 11 -26 -4 -37
-2 -45 11 -8 15 -9 15 -10 -4 0 -17 -10 -23 -57 -35 -32 -7 -66 -12 -77 -11
-10 1 -25 -3 -33 -9 -7 -7 -21 -13 -31 -14 -9 -1 -31 -5 -49 -10 -29 -7 -31
-10 -26 -36 3 -18 1 -29 -6 -29 -6 0 -11 11 -11 25 0 14 -5 25 -11 25 -6 0
-75 -16 -153 -35 -77 -19 -161 -38 -186 -44 -38 -8 -42 -10 -22 -16 36 -12 25
-22 -30 -28 -45 -4 -74 3 -198 45 -80 28 -176 61 -215 74 -38 13 -77 27 -85
31 -8 3 -19 7 -25 9 -5 1 -45 15 -88 31 l-79 28 -18 -23 c-10 -12 -21 -19 -23
-15 -7 12 11 53 23 53 5 0 9 6 7 12 -4 24 41 19 138 -16 54 -20 101 -33 104
-31 2 3 -14 33 -38 67 -23 33 -41 67 -39 75 3 13 89 55 143 70 11 3 27 11 35
18 16 13 179 75 198 75 6 0 37 13 69 29 32 16 86 39 121 52 34 13 75 34 90 46
21 18 12 15 -43 -11 -39 -19 -90 -39 -114 -46 -24 -6 -50 -17 -57 -25 -7 -7
-46 -23 -85 -35 -58 -17 -74 -19 -80 -8 -7 10 -9 9 -9 -5 0 -10 -8 -20 -17
-24 -26 -8 -104 -43 -133 -58 -36 -19 -112 -45 -132 -45 -10 0 -18 -3 -18 -7
0 -10 -49 -33 -70 -33 -9 0 -22 -6 -29 -12 -11 -11 -12 -9 -6 12 4 14 11 53
17 88 7 41 15 62 24 62 8 0 14 -5 14 -11 0 -8 4 -8 13 -1 6 5 24 8 40 6 15 -1
27 2 27 7 0 5 -11 9 -24 9 -15 0 -26 7 -29 17 -4 16 -5 16 -6 1 -1 -11 -7 -15
-21 -11 -16 4 -18 9 -9 27 17 32 99 107 110 100 5 -3 8 0 7 7 -2 7 7 18 20 24
12 5 22 13 22 17 0 5 5 8 12 8 6 0 20 8 30 17 17 15 20 15 28 3 7 -10 10 -11
10 -2 0 6 6 12 14 12 7 0 20 7 27 17 13 15 12 15 -8 2 -12 -7 -26 -10 -30 -6
-4 5 -1 12 7 17 21 14 57 12 64 -2 5 -10 7 -10 12 0 3 6 13 12 22 13 14 0 14
2 2 6 -8 4 -20 13 -27 22 -11 14 -12 14 -13 -1 0 -10 -8 -18 -17 -18 -13 0
-14 3 -5 12 7 7 12 21 12 33 -1 20 -1 20 -13 -2 -14 -24 -60 -63 -76 -63 -12
0 -7 29 10 62 10 20 7 19 -21 -7 -17 -16 -36 -40 -41 -52 -5 -13 -13 -23 -19
-23 -10 0 4 38 40 113 15 30 16 37 4 37 -8 0 -14 -8 -14 -18 0 -10 -7 -27 -15
-38 -8 -10 -15 -26 -15 -35 0 -9 -7 -22 -15 -29 -8 -7 -15 -21 -15 -31 0 -11
-5 -19 -11 -19 -6 0 -9 -7 -6 -15 7 -17 -9 -30 -18 -15 -4 6 -8 34 -11 62 -4
55 -14 79 -14 35 0 -15 -4 -27 -10 -27 -12 0 -2 -27 22 -62 19 -27 17 -54 -3
-42 -5 3 -8 2 -7 -3 2 -5 -14 -28 -34 -52 -31 -37 -39 -41 -44 -26 -4 10 -1
21 7 26 8 5 11 9 7 10 -25 5 -34 4 -40 -6 -10 -13 -10 -47 0 -41 8 5 5 -127
-4 -182 -4 -24 -9 -32 -19 -28 -10 4 -14 -1 -12 -16 2 -17 -5 -23 -33 -30 -89
-23 -80 -27 -80 39 0 33 7 82 15 109 8 27 15 59 15 72 0 16 6 22 21 22 18 0
20 2 9 15 -10 12 -15 13 -21 4 -5 -8 -9 -4 -12 12 -4 23 -4 23 -6 2 0 -13 -5
-23 -11 -23 -5 0 -7 -6 -4 -14 3 -8 0 -48 -6 -89 -6 -42 -12 -98 -12 -126 l-1
-51 -53 -15 c-29 -8 -58 -15 -65 -15 -6 0 -37 -9 -68 -19 -85 -29 -236 -71
-254 -71 -10 0 -17 8 -17 20 0 11 -6 20 -14 20 -10 0 -14 -9 -13 -26 2 -23 -4
-29 -38 -40 -85 -27 -441 -124 -456 -124 -9 0 -19 9 -22 21 -3 13 -10 18 -17
14 -9 -5 -9 -10 -1 -18 15 -15 14 -27 -1 -27 -33 0 -88 22 -88 35 0 8 -1 15
-2 15 -2 0 -21 7 -43 14 -22 8 -44 11 -50 6 -14 -10 -175 52 -175 68 0 17 -47
35 -89 34 -19 0 -83 20 -144 44 -60 24 -112 42 -115 40 -2 -3 7 -8 22 -12 14
-3 26 -10 26 -14 0 -4 17 -15 38 -23 20 -8 64 -27 97 -42 134 -62 264 -113
271 -107 4 4 4 0 2 -8 -3 -8 -10 -14 -16 -13 -6 2 -23 -2 -37 -7 -19 -7 -36
-6 -62 5 -42 18 -56 19 -28 3 19 -11 19 -11 0 -19 -20 -7 -20 -8 0 -9 16 -1
14 -4 -10 -14 -16 -7 -42 -16 -56 -19 -25 -6 -26 -5 -27 38 -2 30 3 47 13 53
12 6 -11 20 -86 55 l-103 47 -90 -97 c-50 -54 -117 -125 -148 -158 -34 -35
-53 -62 -47 -66 15 -9 4 -14 -76 -33 -38 -10 -78 -20 -87 -22 -10 -3 -18 -1
-18 4 0 6 12 13 28 16 93 22 109 30 135 70 15 23 83 102 151 176 l125 135 -47
23 -47 23 -45 -48 c-25 -27 -90 -98 -145 -158 -165 -181 -249 -264 -270 -267
-11 -2 -25 -8 -31 -14 -6 -5 -100 -37 -208 -69 -108 -32 -196 -62 -196 -65 0
-15 26 -28 78 -40 67 -16 71 -26 62 -155 -4 -55 -8 -81 -8 -58 -2 51 -13 59
-49 36 -15 -10 -24 -12 -20 -5 5 6 4 12 -2 12 -5 0 -13 -4 -16 -10 -3 -5 -20
-7 -38 -3 -38 7 -281 68 -351 89 -27 8 -51 12 -53 11 -2 -2 40 -30 92 -63 52
-32 94 -63 92 -68 -2 -5 -14 -13 -27 -18 -13 -5 -21 -6 -17 -2 7 8 -152 116
-164 112 -4 -2 -42 -45 -84 -96 -48 -57 -83 -91 -91 -88 -8 3 -18 -4 -24 -14
-6 -12 -21 -20 -35 -20 -23 0 -42 -16 -31 -27 3 -3 26 -9 52 -14 26 -5 50 -12
53 -15 5 -5 3 -246 -3 -251 -1 -2 -45 16 -97 38 -87 38 -101 48 -181 132 -48
51 -113 122 -145 159 l-58 67 -126 0 -125 1 -31 35 -32 35 -413 -20 c-227 -11
-494 -25 -593 -30 -99 -6 -223 -10 -275 -10 l-95 1 -134 115 c-101 86 -140
114 -155 110 -12 -2 -90 -8 -173 -12 l-153 -7 0 -648 0 -649 2170 0 2170 1 0
29 c0 17 5 30 11 30 7 0 10 -12 7 -30 l-5 -30 4224 0 4223 0 0 587 c-1 540 -2
589 -18 607 -15 18 -15 19 -1 8 16 -12 17 2 18 176 2 188 1 190 -21 195 -21 6
-18 22 4 22 6 0 12 15 14 33 4 37 1 39 -33 12 -18 -14 -36 -18 -66 -15 -23 2
-43 8 -45 14 -2 6 -11 11 -20 11 -23 0 1 23 28 27 22 3 28 -12 8 -21 -9 -3 -8
-5 2 -4 8 1 25 -3 37 -10 17 -9 22 -9 27 3 6 16 -9 29 -24 20 -6 -3 -10 1 -10
9 0 19 50 22 80 6 16 -8 19 -7 17 11 -1 18 -6 20 -37 15 -21 -3 -30 -2 -21 3
11 7 11 10 0 15 -8 3 2 4 21 3 25 -1 35 2 35 13 0 8 -6 14 -13 12 -6 -1 -12 2
-12 8 0 5 7 10 15 10 10 0 15 11 15 35 0 21 -5 35 -12 35 -9 0 -9 3 0 12 9 9
12 184 12 725 l0 713 -6400 0 -6400 0 0 -471z m6821 180 c-26 -5 -58 -5 -75 0
-25 7 -16 9 44 9 70 0 72 -1 31 -9z m489 -33 c0 -2 -7 -6 -15 -10 -8 -3 -15
-1 -15 4 0 6 7 10 15 10 8 0 15 -2 15 -4z m-5437 -233 c-7 -2 -19 -2 -25 0 -7
3 -2 5 12 5 14 0 19 -2 13 -5z m7962 -183 c3 -5 -3 -10 -14 -10 -12 0 -21 5
-21 10 0 6 6 10 14 10 8 0 18 -4 21 -10z m170 0 c3 -5 1 -10 -4 -10 -6 0 -11
5 -11 10 0 6 2 10 4 10 3 0 8 -4 11 -10z m155 -30 c0 -5 -2 -10 -4 -10 -3 0
-8 5 -11 10 -3 6 -1 10 4 10 6 0 11 -4 11 -10z m-3686 -26 c3 -8 2 -12 -4 -9
-6 3 -10 1 -10 -4 0 -6 -4 -11 -9 -11 -5 0 -7 9 -4 20 6 24 19 26 27 4z m4296
-56 c0 -12 -68 -10 -75 2 -3 6 1 10 9 10 9 0 16 7 16 15 0 14 3 13 25 -2 13
-10 25 -21 25 -25z m78 17 c-3 -3 -9 2 -12 12 -6 14 -5 15 5 6 7 -7 10 -15 7
-18z m59 19 c-3 -3 -12 -4 -19 -1 -8 3 -5 6 6 6 11 1 17 -2 13 -5z m-87 -36
c0 -19 -2 -20 -10 -8 -13 19 -13 30 0 30 6 0 10 -10 10 -22z m50 -8 c0 -5 -2
-10 -4 -10 -3 0 -8 5 -11 10 -3 6 -1 10 4 10 6 0 11 -4 11 -10z m65 -21 c-4
-5 -15 -9 -26 -9 -11 0 -17 5 -14 10 4 6 11 8 16 5 5 -4 9 -1 9 5 0 6 5 8 10
5 6 -4 8 -11 5 -16z m-131 4 c7 -8 11 -9 37 -12 6 0 3 -9 -7 -18 -16 -17 -16
-18 7 -24 23 -7 23 -7 -3 -8 -30 -1 -40 -21 -10 -21 14 0 17 -8 17 -40 l0 -40
-22 25 c-13 13 -23 29 -23 35 0 6 -4 8 -10 5 -6 -3 -7 1 -4 9 4 10 -1 18 -10
22 -11 4 -14 13 -11 25 4 11 2 19 -4 19 -5 0 -12 -10 -14 -22 -3 -16 -5 -13
-6 10 0 19 -5 31 -11 27 -5 -3 -10 -1 -10 4 0 12 73 15 84 4z m146 -53 c0 -5
-2 -10 -4 -10 -3 0 -8 5 -11 10 -3 6 -1 10 4 10 6 0 11 -4 11 -10z m110 -20
c0 -11 -4 -20 -9 -20 -5 0 -7 9 -4 20 3 11 7 20 9 20 2 0 4 -9 4 -20z m-140
-10 c0 -5 -2 -10 -4 -10 -3 0 -8 5 -11 10 -3 6 -1 10 4 10 6 0 11 -4 11 -10z
m-36 -26 c3 -8 2 -12 -4 -9 -6 3 -10 10 -10 16 0 14 7 11 14 -7z m56 -14 c-7
-4 -16 -13 -20 -20 -5 -8 -9 -6 -12 8 -4 15 0 20 19 20 16 0 20 -3 13 -8z
m-53 -42 c-3 -8 -6 -5 -6 6 -1 11 2 17 5 13 3 -3 4 -12 1 -19z m358 -68 c3 -5
1 -10 -4 -10 -6 0 -11 5 -11 10 0 6 2 10 4 10 3 0 8 -4 11 -10z m-235 -15 c-7
-8 -17 -12 -23 -8 -6 4 -3 9 9 14 27 11 28 11 14 -6z m60 0 c0 -7 -30 -13 -34
-7 -3 4 4 9 15 9 10 1 19 0 19 -2z m-233 -11 c-3 -3 -12 -4 -19 -1 -8 3 -5 6
6 6 11 1 17 -2 13 -5z m113 -30 c0 -8 -4 -12 -10 -9 -5 3 -10 13 -10 21 0 8 5
12 10 9 6 -3 10 -13 10 -21z m790 5 c0 -5 -8 -9 -17 -8 -11 0 -13 3 -5 6 6 2
9 10 6 15 -4 7 -2 8 4 4 7 -4 12 -11 12 -17z m-50 4 c0 -5 -5 -15 -10 -23 -8
-13 -10 -13 -10 2 0 9 -6 19 -12 21 -7 3 -3 6 10 6 12 1 22 -2 22 -6z m-620
-13 c0 -5 -4 -10 -10 -10 -5 0 -10 5 -10 10 0 6 5 10 10 10 6 0 10 -4 10 -10z
m-325 -10 c3 -5 1 -10 -4 -10 -6 0 -11 5 -11 10 0 6 2 10 4 10 3 0 8 -4 11
-10z m245 -25 c-8 -10 -9 -15 -1 -15 19 0 12 -17 -8 -23 -29 -7 -35 22 -9 43
26 21 37 18 18 -5z m630 21 c0 -3 -4 -8 -10 -11 -5 -3 -10 -1 -10 4 0 6 5 11
10 11 6 0 10 -2 10 -4z m350 -10 c0 -3 -4 -8 -10 -11 -5 -3 -10 -1 -10 4 0 6
5 11 10 11 6 0 10 -2 10 -4z m-910 -16 c0 -5 -4 -10 -10 -10 -5 0 -10 5 -10
10 0 6 5 10 10 10 6 0 10 -4 10 -10z m-350 -22 c0 -6 -7 -8 -15 -5 -8 4 -17 2
-20 -3 -8 -13 -25 -13 -25 0 0 6 7 10 15 10 8 0 15 4 15 10 0 5 7 7 15 4 8 -4
15 -11 15 -16z m222 -3 c0 -5 -5 -11 -11 -13 -6 -2 -11 4 -11 13 0 9 5 15 11
13 6 -2 11 -8 11 -13z m708 -26 c0 -4 -7 -10 -16 -13 -14 -5 -15 -4 -4 9 8 10
9 15 1 15 -6 0 -11 8 -11 17 0 15 2 14 15 -3 8 -10 15 -22 15 -25z m-1020 11
c0 -5 -4 -10 -10 -10 -5 0 -10 5 -10 10 0 6 5 10 10 10 6 0 10 -4 10 -10z
m140 -11 c0 -5 -4 -9 -10 -9 -5 0 -10 7 -10 16 0 8 5 12 10 9 6 -3 10 -10 10
-16z m285 12 c-16 -14 -55 -23 -55 -12 0 8 16 14 55 20 6 0 6 -2 0 -8z m-2278
-36 c0 -8 -4 -15 -9 -15 -4 0 -8 7 -8 15 0 8 4 15 8 15 5 0 9 -7 9 -15z m2193
-6 c10 -17 9 -20 -7 -17 -30 5 -46 38 -18 38 8 0 19 -9 25 -21z m-266 4 c-5
-5 -12 -12 -16 -18 -4 -6 -8 -2 -8 8 0 9 7 17 17 17 9 0 12 -3 7 -7z m37 -33
c5 0 9 -4 9 -10 0 -5 -8 -10 -19 -10 -15 0 -17 5 -13 28 4 19 7 22 10 10 2
-10 8 -18 13 -18z m118 -12 c1 -5 -3 -8 -9 -8 -5 0 -10 12 -9 28 0 24 1 25 9
7 5 -11 9 -23 9 -27z m-34 -16 c-8 -8 -25 10 -19 20 4 6 9 5 15 -3 4 -7 6 -15
4 -17z m395 7 c0 -6 -4 -7 -10 -4 -5 3 -10 11 -10 16 0 6 5 7 10 4 6 -3 10
-11 10 -16z m66 4 c-5 -11 1 -23 16 -34 29 -22 16 -37 -14 -17 -28 18 -36 68
-12 68 11 0 14 -5 10 -17z m-287 -15 c14 -19 5 -23 -18 -9 -7 5 -10 14 -6 21
4 6 8 10 9 8 1 -2 8 -11 15 -20z m-4844 2 c-3 -5 -10 -10 -16 -10 -5 0 -9 5
-9 10 0 6 7 10 16 10 8 0 12 -4 9 -10z m1983 4 c-7 -7 -98 -30 -193 -49 -38
-8 -86 -19 -105 -24 -19 -6 -87 -22 -150 -37 -63 -14 -152 -35 -197 -46 -45
-11 -90 -18 -100 -16 -16 3 22 13 227 59 70 16 368 86 435 102 66 17 91 20 83
11z m3032 -4 c0 -5 -10 -10 -22 -10 -19 0 -20 2 -8 10 19 13 30 13 30 0z m215
0 c3 -5 1 -10 -4 -10 -6 0 -11 5 -11 10 0 6 2 10 4 10 3 0 8 -4 11 -10z
m-2498 -6 c-3 -3 -12 -4 -19 -1 -8 3 -5 6 6 6 11 1 17 -2 13 -5z m1824 -24 c5
0 9 -4 9 -10 0 -5 -4 -10 -9 -10 -13 0 -41 29 -41 41 0 6 7 3 16 -5 8 -9 20
-16 25 -16z m19 26 c0 -3 -4 -8 -10 -11 -5 -3 -10 -1 -10 4 0 6 5 11 10 11 6
0 10 -2 10 -4z m158 -19 c12 -1 22 -7 22 -14 0 -16 -12 -17 -28 -1 -9 9 -12 9
-12 -2 0 -20 -13 -3 -17 23 -2 15 0 18 5 9 5 -7 19 -14 30 -15z m-2078 3 c-14
-4 -38 -8 -55 -8 l-30 0 30 8 c17 4 41 8 55 8 l25 0 -25 -8z m2886 -25 c1 -14
-1 -25 -6 -25 -10 0 -21 41 -14 52 9 13 17 2 20 -27z m214 26 c0 -17 -18 -21
-24 -6 -3 9 0 15 9 15 8 0 15 -4 15 -9z m-5780 -16 c0 -8 -4 -15 -8 -15 -5 0
-9 7 -9 15 0 8 4 15 9 15 4 0 8 -7 8 -15z m4705 5 c3 -5 1 -10 -4 -10 -6 0
-11 5 -11 10 0 6 2 10 4 10 3 0 8 -4 11 -10z m115 0 c0 -5 -4 -10 -10 -10 -5
0 -10 5 -10 10 0 6 5 10 10 10 6 0 10 -4 10 -10z m278 -7 c18 -17 22 -47 12
-82 -6 -21 -5 -31 3 -35 7 -2 3 -5 -9 -5 -11 -1 -24 -4 -28 -8 -10 -10 -46
-11 -46 -1 0 4 -5 7 -11 6 -14 -4 -55 49 -46 58 4 4 17 -5 30 -19 12 -15 26
-27 30 -27 4 0 -1 10 -13 22 -22 24 -19 38 5 18 8 -7 15 -8 15 -3 0 17 -24 33
-49 34 -15 0 -20 3 -13 6 6 2 12 12 12 21 0 8 3 13 6 10 3 -4 17 0 32 8 31 16
51 15 70 -3z m530 0 c-33 -8 -19 -40 15 -34 5 1 6 -3 2 -9 -3 -5 -13 -10 -21
-10 -8 0 -14 -5 -14 -11 0 -6 8 -8 18 -5 16 6 16 5 0 -7 -10 -8 -15 -17 -11
-20 3 -4 -1 -7 -9 -7 -21 0 -27 17 -20 60 5 37 17 50 42 49 11 -1 10 -3 -2 -6z
m352 -3 c0 -5 -7 -10 -15 -10 -8 0 -15 5 -15 10 0 6 7 10 15 10 8 0 15 -4 15
-10z m-4670 -20 c0 -11 -4 -20 -10 -20 -5 0 -10 9 -10 20 0 11 5 20 10 20 6 0
10 -9 10 -20z m3310 5 c4 3 10 -1 13 -9 4 -10 0 -12 -14 -9 -10 3 -19 13 -18
22 0 10 2 11 6 3 2 -6 8 -10 13 -7z m786 -17 c-1 -36 -12 -58 -27 -58 -14 0
-11 38 7 65 9 14 17 25 19 25 1 0 2 -15 1 -32z m-5493 -57 c-21 -18 -57 -51
-81 -72 -23 -22 -47 -39 -52 -39 -6 0 -10 -6 -10 -12 0 -14 172 -88 203 -88
12 0 17 -8 17 -30 0 -25 -4 -30 -25 -30 -14 0 -55 -7 -89 -16 -62 -16 -65 -15
-85 5 -21 21 -28 55 -13 65 4 2 23 -3 42 -11 19 -9 38 -15 43 -15 19 5 4 -15
-20 -25 -42 -16 2 -15 52 2 27 9 33 13 18 14 -12 1 -24 5 -27 10 -3 5 -18 12
-33 16 -16 3 -73 26 -128 50 -163 70 -172 72 -189 50 -12 -16 -16 -17 -30 -6
-14 12 -16 12 -10 -2 7 -19 -46 -75 -66 -69 -7 3 -10 0 -6 -7 4 -6 1 -11 -8
-11 -9 0 -16 2 -16 6 0 7 129 139 138 140 4 0 15 4 25 9 10 4 28 3 40 -3 12
-6 37 -16 55 -24 17 -7 32 -16 32 -20 0 -14 27 -9 40 7 7 9 15 13 17 11 5 -5
3 -7 118 101 73 69 80 73 83 52 3 -17 -7 -33 -35 -58z m3767 77 c0 -2 3 -128
6 -281 5 -220 4 -280 -7 -293 -10 -13 -10 -17 2 -25 8 -5 10 -9 5 -9 -5 0 -3
-6 3 -13 6 -8 9 -16 6 -18 -2 -3 -5 -23 -6 -46 -3 -46 -21 -62 -47 -41 -12 10
-14 10 -9 1 9 -15 -2 -18 -158 -38 -66 -9 -131 -18 -145 -21 -85 -15 -252 -34
-261 -28 -6 3 -8 22 -5 43 3 20 8 171 12 336 3 165 7 304 8 310 0 5 30 15 66
21 36 6 92 17 125 24 33 6 69 13 80 15 11 1 27 5 36 9 32 14 288 61 289 54z
m1850 -8 c0 -5 -4 -10 -9 -10 -6 0 -13 5 -16 10 -3 6 1 10 9 10 9 0 16 -4 16
-10z m-3555 -72 c-3 -40 -8 -75 -10 -77 -2 -1 -21 -5 -42 -7 -28 -2 -32 -1
-13 4 24 8 26 13 44 115 4 20 12 37 18 37 7 0 8 -23 3 -72z m640 56 c-6 -2
-57 -13 -115 -24 -58 -12 -154 -32 -215 -44 -60 -13 -148 -32 -195 -41 -47
-10 -92 -20 -100 -23 -10 -3 -12 -2 -5 5 6 6 69 22 140 37 72 15 207 43 300
63 94 19 172 37 174 39 2 2 9 1 14 -3 7 -4 7 -8 2 -9z m2055 0 c0 -8 -5 -12
-10 -9 -6 4 -8 11 -5 16 9 14 15 11 15 -7z m50 6 c0 -5 -4 -10 -10 -10 -5 0
-10 5 -10 10 0 6 5 10 10 10 6 0 10 -4 10 -10z m60 -5 c0 -8 -4 -15 -9 -15 -5
0 -11 7 -15 15 -3 9 0 15 9 15 8 0 15 -7 15 -15z m80 5 c0 -5 -7 -7 -15 -4 -8
4 -15 8 -15 10 0 2 7 4 15 4 8 0 15 -4 15 -10z m1006 -26 c-21 -20 -28 -17
-14 5 7 11 16 17 20 15 5 -3 2 -12 -6 -20z m-5480 8 c-3 -5 5 -8 17 -8 16 1
23 -6 25 -23 2 -13 0 -21 -5 -19 -4 2 -25 12 -45 21 -49 23 -57 37 -18 37 17
0 29 -4 26 -8z m4384 -22 c0 -5 7 -7 15 -4 8 4 15 2 15 -4 0 -9 -32 -22 -57
-22 -8 0 -13 13 -13 30 0 28 2 30 20 20 11 -6 20 -15 20 -20z m120 17 c0 -4
12 -4 26 -1 23 6 25 4 16 -12 -5 -11 -18 -36 -28 -56 -10 -21 -19 -38 -21 -38
-1 0 -13 4 -27 10 -28 10 -46 71 -28 93 11 13 62 17 62 4z m660 -2 c0 -5 4 -4
8 3 6 8 9 1 9 -19 0 -30 -1 -31 -36 -25 -20 3 -44 6 -53 6 -10 0 -18 7 -18 15
0 8 5 15 11 15 5 0 8 4 5 8 -3 5 13 9 34 8 22 0 40 -5 40 -11z m-5254 -70 c-1
-41 -5 -77 -9 -81 -4 -4 -19 -1 -33 6 -14 8 -40 14 -59 13 -29 -1 -33 2 -31
21 4 30 17 57 26 51 4 -2 18 7 30 20 13 14 30 25 37 25 8 0 12 4 9 8 -2 4 4 8
14 9 16 1 18 -6 16 -72z m-586 61 c0 -3 -4 -8 -10 -11 -5 -3 -10 -1 -10 4 0 6
5 11 10 11 6 0 10 -2 10 -4z m750 -32 c0 -24 -4 -34 -12 -31 -7 2 -13 9 -12
15 1 7 2 21 3 32 2 35 21 21 21 -16z m4187 1 c1 0 -1 -6 -5 -12 -5 -8 -14 -5
-30 8 -13 10 -20 23 -17 29 5 8 14 5 28 -7 12 -10 23 -18 24 -18z m-75 3 c-4
-15 -22 -27 -22 -14 0 2 -2 11 -5 18 -4 9 2 14 13 14 13 0 18 -6 14 -18z m400
-16 c10 -7 18 -20 18 -28 0 -8 6 -14 14 -14 8 0 16 -7 20 -15 4 -13 -2 -14
-37 -8 -23 3 -53 9 -67 13 -23 7 -23 8 -6 15 11 5 27 3 38 -4 11 -7 23 -10 26
-7 3 3 -1 6 -9 6 -11 0 -11 2 1 10 13 9 13 10 0 11 -8 1 -23 1 -32 0 -21 -3
-21 -1 -7 36 8 20 13 24 17 13 3 -8 13 -21 24 -28z m798 31 c0 -5 -4 -15 -10
-23 -11 -18 -25 -7 -17 15 6 15 27 21 27 8z m874 -2 c3 -5 -2 -12 -11 -15 -14
-6 -15 -9 -4 -15 16 -10 6 -31 -15 -31 -8 0 -14 -5 -14 -11 0 -8 -5 -7 -16 2
-14 11 -14 13 1 21 8 5 12 14 9 20 -4 6 1 17 11 25 22 15 32 16 39 4z m-6288
-21 c7 0 34 -14 60 -32 38 -26 44 -33 32 -42 -8 -6 -20 -21 -27 -34 -10 -19
-19 -23 -54 -20 l-42 3 -3 75 c-2 60 0 72 10 62 6 -6 18 -12 24 -12z m160 12
c6 -4 10 -15 8 -25 -2 -13 2 -17 13 -13 8 3 27 9 41 12 21 4 24 3 12 -5 -13
-10 -13 -11 0 -12 10 0 8 -3 -5 -9 -11 -4 -31 -6 -44 -3 -15 4 -22 2 -17 -5 4
-6 -2 -8 -14 -5 -16 4 -20 13 -18 39 2 35 5 39 24 26z m-2094 -114 c-5 -120
-6 -122 -76 -93 -29 12 -36 21 -36 43 0 18 9 37 25 50 14 12 25 26 25 30 0 5
11 14 25 20 13 6 27 23 31 37 3 14 8 25 9 23 1 -2 0 -51 -3 -110z m6364 75
c-10 -10 -19 5 -10 18 6 11 8 11 12 0 2 -7 1 -15 -2 -18z m647 7 c3 -11 1 -20
-4 -20 -5 0 -9 9 -9 20 0 11 2 20 4 20 2 0 6 -9 9 -20z m50 0 c3 -12 14 -20
27 -20 16 0 20 4 16 15 -6 16 3 19 28 9 18 -7 12 -53 -8 -66 -8 -6 -6 -11 4
-18 10 -6 11 -10 3 -10 -7 0 -21 8 -31 18 -19 19 -43 9 -34 -16 6 -18 -15 -14
-22 4 -4 10 1 23 11 31 17 14 17 14 1 9 -15 -4 -18 0 -15 29 2 39 12 46 20 15z
m1067 5 c0 -8 -7 -15 -15 -15 -9 0 -12 6 -9 15 4 8 10 15 15 15 5 0 9 -7 9
-15z m-1127 -34 c22 -48 23 -91 1 -91 -13 0 -14 3 -4 15 10 12 9 16 -3 21 -8
3 -17 17 -20 32 -3 15 -9 35 -12 45 -14 35 20 16 38 -22z m-4473 19 c0 -5 -3
-10 -7 -10 -6 0 -414 -86 -458 -97 -11 -3 -30 -7 -42 -10 -13 -3 -23 -1 -23 4
0 5 33 16 73 23 39 7 106 21 147 32 41 11 88 22 105 24 16 2 64 13 105 23 89
23 100 24 100 11z m3880 -30 c4 0 10 -9 13 -21 6 -21 -24 -42 -31 -21 -2 6
-10 8 -18 5 -12 -4 -17 6 -13 33 0 4 -5 11 -13 16 -8 5 -3 6 15 2 15 -3 27 -2
26 2 -1 5 0 14 1 19 2 6 5 0 7 -12 2 -13 8 -23 13 -23z m-76 -2 c9 -17 16 -34
16 -37 -1 -11 -40 44 -40 57 0 20 8 14 24 -20z m370 13 c13 -5 16 -10 8 -15
-11 -6 -52 9 -52 19 0 7 22 5 44 -4z m511 0 c3 -5 1 -12 -5 -16 -5 -3 -10 1
-10 9 0 18 6 21 15 7z m124 -5 c9 -11 6 -18 -19 -36 l-30 -21 0 26 c0 21 4 26
16 21 12 -4 15 -2 10 9 -7 19 8 20 23 1z m786 4 c3 -5 1 -10 -4 -10 -6 0 -11
5 -11 10 0 6 2 10 4 10 3 0 8 -4 11 -10z m-6548 -47 c-3 -10 -5 -2 -5 17 0 19
2 27 5 18 2 -10 2 -26 0 -35z m992 33 c-14 -7 -39 -16 -55 -19 -24 -5 -23 -3
11 13 45 22 85 27 44 6z m-379 -6 c-19 -13 -30 -13 -30 0 0 6 10 10 23 10 18
0 19 -2 7 -10z m4290 -12 c-26 -9 -54 -3 -46 10 3 5 20 7 38 4 31 -5 32 -5 8
-14z m201 -3 c16 -9 27 -20 24 -25 -3 -6 1 -7 9 -4 11 4 16 0 16 -15 0 -12 -4
-21 -10 -21 -5 0 -10 5 -10 10 0 6 -6 10 -13 10 -7 0 -24 14 -39 30 -29 33
-22 38 23 15z m1319 5 c0 -5 -5 -10 -11 -10 -5 0 -7 5 -4 10 3 6 8 10 11 10 2
0 4 -4 4 -10z m-5205 -10 c-3 -5 -14 -10 -23 -10 -15 0 -15 2 -2 10 20 13 33
13 25 0z m3838 -20 c17 -17 16 -18 -18 -34 -39 -19 -48 -41 -12 -31 15 4 18 3
8 -3 -9 -6 -10 -12 -2 -16 7 -5 7 -15 1 -32 -18 -47 -13 -57 26 -52 35 4 36 4
30 -26 -9 -41 -19 -49 -55 -41 -43 9 -39 25 4 18 21 -3 35 -1 35 5 0 12 -66
26 -82 16 -6 -4 -8 -3 -5 3 4 6 -5 21 -18 33 -18 17 -25 19 -25 9 0 -12 -2
-12 -9 1 -6 8 -8 17 -5 21 2 4 -3 10 -12 13 -8 3 -13 10 -10 14 3 5 -4 21 -15
38 -26 40 -25 72 4 78 12 3 31 7 42 9 34 7 99 -6 118 -23z m1533 15 c-11 -8
-25 -15 -30 -15 -6 0 -2 7 8 15 11 8 25 15 30 15 6 0 2 -7 -8 -15z m-786 -10
c-7 -9 -15 -13 -19 -10 -3 3 1 10 9 15 21 14 24 12 10 -5z m-7324 -25 c3 0 18
7 34 15 16 8 31 12 33 7 6 -9 9 -55 8 -106 -1 -40 -3 -41 -60 -25 -7 2 -16 -2
-18 -8 -3 -9 8 -13 38 -13 l42 0 -6 -97 c-4 -54 -7 -138 -7 -186 0 -68 -3 -86
-12 -81 -8 5 -8 2 1 -10 8 -9 10 -16 5 -15 -5 1 -16 0 -24 -4 -36 -14 -79 -13
-82 1 -2 8 0 103 4 210 5 143 11 197 20 203 10 7 10 9 1 9 -9 0 -13 20 -13 66
0 59 1 64 16 50 8 -9 18 -16 20 -16z m1821 -4 c6 -6 -21 -12 -89 -21 -48 -6
-58 1 -36 23 9 9 9 12 -2 12 -12 0 -12 2 -2 9 12 7 117 -11 129 -23z m5463 24
c0 -5 -4 -10 -10 -10 -5 0 -10 5 -10 10 0 6 5 10 10 10 6 0 10 -4 10 -10z
m-5657 -12 c7 -22 -4 -38 -26 -38 -21 0 -21 0 -1 16 17 14 17 15 1 10 -10 -3
-23 -6 -29 -6 -6 0 -8 -6 -5 -14 3 -8 -1 -17 -9 -20 -23 -9 -16 13 12 39 30
27 50 32 57 13z m4756 -29 c14 -40 14 -40 -4 -32 -9 3 -22 18 -31 34 -14 27
-13 29 5 29 12 0 23 -11 30 -31z m-58 -1 c7 -13 18 -29 26 -36 7 -7 13 -20 13
-28 0 -8 4 -14 9 -14 5 0 12 -8 16 -19 3 -10 14 -29 25 -41 22 -26 25 -40 9
-40 -5 0 -7 5 -4 10 3 6 0 10 -8 10 -17 0 -47 42 -47 65 0 8 -5 15 -11 15 -5
0 -16 15 -24 34 -8 19 -19 37 -25 41 -13 8 -13 25 0 25 5 0 15 -10 21 -22z
m379 12 c0 -5 -5 -10 -11 -10 -5 0 -7 5 -4 10 3 6 8 10 11 10 2 0 4 -4 4 -10z
m-6548 -35 c27 -27 34 -42 33 -67 -2 -30 -5 -33 -31 -30 -16 2 -34 8 -40 13
-6 5 -14 6 -17 2 -4 -3 -7 21 -7 55 0 74 11 78 62 27z m7213 25 c3 -5 1 -10
-4 -10 -6 0 -11 5 -11 10 0 6 2 10 4 10 3 0 8 -4 11 -10z m-7560 -252 c-3
-139 -6 -304 -6 -365 -1 -62 -4 -113 -8 -113 -3 0 -5 -26 -3 -58 4 -69 -8 -85
-65 -80 -37 3 -38 4 -38 43 0 34 3 40 22 40 12 0 25 4 29 8 4 4 16 7 26 7 10
0 18 5 18 10 0 6 -2 10 -4 10 -2 0 -12 3 -22 7 -12 4 -15 3 -10 -5 4 -7 1 -12
-9 -12 -9 0 -14 4 -11 9 4 5 -3 7 -14 4 -11 -3 -17 -10 -14 -15 4 -7 -6 -8
-27 -3 -22 4 -29 3 -20 -3 16 -12 -66 -26 -95 -16 -16 5 -16 4 -4 -5 12 -9 9
-11 -15 -12 -19 0 -25 -3 -15 -7 22 -10 18 -49 -7 -67 -21 -15 -23 -15 -24 2
-3 50 -1 120 5 233 8 135 12 234 15 348 1 67 3 72 19 63 12 -7 39 -4 85 9 37
10 67 17 67 14 0 -3 6 -2 13 3 6 4 14 8 17 9 27 5 60 17 60 23 0 3 -16 19 -35
34 -19 15 -35 32 -35 36 0 13 73 81 87 81 7 0 13 5 13 10 0 6 2 10 5 10 4 0 3
-114 0 -252z m2045 231 c-41 -10 -83 -18 -92 -19 -19 0 -25 -20 -7 -20 8 0 8
-4 0 -14 -16 -19 0 -29 33 -20 38 9 52 -6 21 -22 -23 -12 -30 -12 -48 1 -24
17 -67 20 -67 5 0 -5 8 -14 18 -19 15 -9 14 -10 -6 -11 -13 0 -20 4 -17 10 3
6 -4 10 -18 10 -25 0 -55 25 -44 37 4 3 2 14 -3 23 -7 14 -5 19 10 23 17 4 20
0 20 -29 0 -24 5 -34 15 -34 11 0 15 11 15 35 0 33 1 35 21 24 13 -6 19 -7 15
-1 -4 6 17 15 51 22 32 6 63 13 68 15 6 2 28 3 50 3 34 0 30 -3 -35 -19z m435
0 c-22 -10 -49 -18 -60 -18 -11 0 3 9 30 19 66 23 80 23 30 -1z m-350 -8 c-3
-6 -16 -11 -28 -11 -21 1 -21 1 3 15 27 14 36 13 25 -4z m6096 -9 c-6 -11 -6
-24 0 -33 6 -10 9 -10 9 -1 0 6 10 12 22 12 42 0 -3 -27 -54 -33 -38 -3 -45
-2 -41 10 5 12 1 14 -17 8 -15 -5 -20 -4 -16 4 4 6 22 12 39 12 18 1 24 3 15
6 -10 2 -18 9 -18 15 0 6 9 8 20 5 11 -3 20 -1 20 4 0 5 7 9 15 9 12 0 13 -4
6 -18z m-4601 -8 c0 -8 -4 -12 -10 -9 -5 3 -10 10 -10 16 0 5 5 9 10 9 6 0 10
-7 10 -16z m-40 -4 c-13 -9 -13 -12 3 -21 9 -5 17 -15 17 -21 0 -6 8 -17 18
-24 16 -12 16 -13 -4 -14 -22 0 -39 24 -28 41 3 5 -2 9 -10 9 -8 0 -18 -4 -21
-10 -3 -5 -17 -10 -31 -10 -13 0 -24 5 -24 10 0 6 12 10 27 10 14 0 24 3 20 6
-9 9 15 33 33 33 13 1 13 0 0 -9z m3347 -7 c0 -7 -4 -13 -9 -13 -4 0 -8 5 -8
11 0 6 -7 8 -16 5 -8 -3 -12 -2 -9 3 8 14 42 9 42 -6z m696 8 c26 14 37 0 25
-31 l-10 -25 -9 23 c-4 12 -11 22 -14 22 -4 0 -3 -4 0 -10 11 -18 -2 -10 -21
13 -10 12 -12 17 -5 10 10 -9 20 -9 34 -2z m-7530 -18 c15 -3 27 -10 28 -17 4
-60 -4 -332 -12 -369 -5 -26 -8 -52 -6 -56 3 -13 -9 -13 -53 0 l-40 12 0 129
c0 107 2 128 15 128 8 0 15 7 15 15 0 8 -4 15 -10 15 -6 0 -10 34 -10 81 0 80
0 81 23 74 12 -4 34 -9 50 -12z m712 7 c3 -5 1 -10 -4 -10 -6 0 -11 5 -11 10
0 6 2 10 4 10 3 0 8 -4 11 -10z m658 -27 c-8 -21 -22 -5 -16 18 4 15 8 17 13
8 5 -7 6 -18 3 -26z m297 27 c0 -5 -5 -10 -11 -10 -5 0 -7 5 -4 10 3 6 8 10
11 10 2 0 4 -4 4 -10z m1473 -76 c196 -66 257 -90 253 -101 -4 -9 0 -14 12
-13 24 3 62 -10 62 -21 0 -12 -17 -11 -25 1 -9 15 -25 12 -25 -4 0 -15 -37
-30 -100 -41 -73 -12 -125 -29 -138 -44 -8 -9 -11 -10 -7 -3 8 16 -16 16 -101
-2 -38 -8 -130 -26 -204 -40 -74 -14 -207 -39 -294 -56 -87 -17 -167 -28 -177
-25 -24 8 -24 31 -1 45 15 10 15 11 -3 4 -22 -8 -60 -9 -115 -1 -42 5 -48 23
-42 130 4 79 6 81 50 80 6 -1 12 3 12 8 0 16 18 9 22 -8 3 -14 8 -11 21 14 9
18 17 41 17 53 0 11 5 20 11 20 8 0 10 -38 4 -140 -4 -77 -3 -140 2 -140 4 0
29 19 56 43 l47 42 -2 70 c-3 63 0 72 21 93 13 12 26 22 28 22 3 0 3 -31 0
-69 -3 -38 -3 -72 0 -75 6 -6 71 42 222 161 57 46 111 83 120 83 8 0 132 -39
274 -86z m3368 54 c8 -15 8 -18 0 -14 -6 4 -16 16 -22 28 -8 15 -8 18 0 14 6
-4 16 -16 22 -28z m-5510 0 c-4 -12 -14 -24 -22 -26 -9 -2 -10 -1 -3 5 6 4 13
16 17 26 3 9 9 17 11 17 3 0 2 -10 -3 -22z m5989 7 c0 -8 5 -15 10 -15 6 0 10
-7 10 -15 0 -28 -28 -15 -32 15 -3 17 -1 30 4 30 4 0 8 -7 8 -15z m418 8 c-10
-2 -18 -12 -18 -21 0 -13 2 -14 9 -3 5 8 11 9 15 3 3 -5 -5 -21 -19 -33 -13
-13 -25 -29 -25 -36 0 -6 -4 -15 -10 -18 -12 -7 -2 55 11 70 5 5 9 17 9 27 0
12 7 18 23 17 16 -1 18 -2 5 -6z m-268 -13 c0 -5 -4 -10 -10 -10 -5 0 -10 5
-10 10 0 6 5 10 10 10 6 0 10 -4 10 -10z m-4920 -4 c0 -2 -7 -7 -16 -10 -8 -3
-12 -2 -9 4 6 10 25 14 25 6z m4893 -16 c3 -11 1 -23 -4 -26 -5 -3 -9 6 -9 20
0 31 6 34 13 6z m377 10 c12 -8 9 -10 -13 -10 -16 0 -26 4 -22 10 8 12 16 12
35 0z m-6743 -93 c-3 -7 -8 -4 -12 8 -3 11 -11 28 -16 37 -5 10 -9 26 -8 35 0
10 10 -1 20 -25 11 -24 18 -49 16 -55z m6569 77 c-3 -9 -6 -18 -6 -20 0 -2 -4
-4 -9 -4 -5 0 -7 9 -4 20 3 11 10 20 15 20 6 0 7 -7 4 -16z m715 -26 c-8 -10
-22 -18 -31 -18 -12 1 -12 3 3 11 21 12 23 31 2 23 -8 -4 -15 -2 -15 3 0 18
11 21 34 10 21 -10 21 -12 7 -29z m-431 17 c0 -8 -4 -15 -10 -15 -5 0 -10 7
-10 15 0 8 5 15 10 15 6 0 10 -7 10 -15z m-8121 1 c-2 -2 -17 -6 -34 -10 -22
-5 -26 -4 -15 4 14 9 59 15 49 6z m2681 0 c0 -2 -7 -7 -16 -10 -8 -3 -12 -2
-9 4 6 10 25 14 25 6z m1562 -89 c2 -48 0 -87 -4 -87 -5 0 -8 5 -8 10 0 6 -15
20 -32 31 l-33 20 33 -6 c31 -6 32 -5 30 22 -3 42 1 107 7 102 2 -3 6 -44 7
-92z m3148 83 c0 -5 -5 -10 -11 -10 -5 0 -7 5 -4 10 3 6 8 10 11 10 2 0 4 -4
4 -10z m646 -4 c24 -4 28 -16 6 -16 -12 0 -36 -15 -52 -32 l-29 -33 -1 42 c0
43 11 55 44 46 10 -3 25 -6 32 -7z m724 4 c-20 -13 -43 -13 -35 0 3 6 16 10
28 10 18 0 19 -2 7 -10z m-7997 -11 l38 -10 -2 -152 c-2 -178 -7 -220 -22
-210 -7 4 -27 6 -46 4 l-34 -3 6 138 c4 75 7 161 7 191 0 58 -1 57 53 42z
m1736 4 c-1 -5 -1 -15 0 -23 1 -12 3 -12 9 -2 14 22 42 2 42 -29 0 -30 -17
-38 -38 -17 -9 9 -12 9 -12 0 0 -7 5 -12 11 -12 5 0 7 -5 3 -12 -6 -9 -9 -9
-12 0 -2 7 -9 12 -16 12 -8 0 -13 16 -14 45 0 32 4 45 14 45 8 0 13 -3 13 -7z
m4561 -3 c0 -5 -2 -10 -4 -10 -3 0 -8 5 -11 10 -3 6 -1 10 4 10 6 0 11 -4 11
-10z m1550 6 c0 -2 -7 -6 -15 -10 -8 -3 -15 -1 -15 4 0 6 7 10 15 10 8 0 15
-2 15 -4z m-6165 -27 c4 -12 3 -25 -3 -31 -6 -6 -11 1 -14 21 -5 35 7 42 17
10z m195 14 c0 -5 -17 -18 -38 -31 l-37 -24 34 31 c35 33 41 36 41 24z m1411
-16 c4 -5 17 -7 29 -4 17 4 19 3 10 -8 -8 -10 -7 -14 2 -18 9 -4 9 -6 -2 -6
-9 -1 -26 6 -38 15 -12 8 -35 22 -50 30 l-27 15 35 -7 c19 -3 38 -11 41 -17z
m3066 -7 c9 -24 9 -30 -2 -30 -13 0 -25 21 -25 46 0 24 15 15 27 -16z m1381
18 c-2 -6 -10 -14 -16 -16 -7 -2 -10 2 -6 12 7 18 28 22 22 4z m292 2 c0 -5
-15 -10 -32 -9 -31 1 -32 1 -8 9 35 11 40 11 40 0z m-1505 -14 c12 -12 11 -15
-10 -19 -28 -5 -27 -5 -19 17 8 20 12 20 29 2z m245 4 c0 -5 -4 -10 -10 -10
-5 0 -10 5 -10 10 0 6 5 10 10 10 6 0 10 -4 10 -10z m120 1 c0 -6 -4 -13 -10
-16 -5 -3 -10 -15 -10 -26 0 -10 -5 -19 -10 -19 -9 0 -5 42 7 63 6 10 23 9 23
-2z m-3203 -7 c-3 -3 -12 -4 -19 -1 -8 3 -5 6 6 6 11 1 17 -2 13 -5z m3321
-16 c-7 -13 -17 -26 -23 -30 -6 -5 -5 -8 3 -8 6 0 12 -7 12 -15 0 -24 -27 -18
-34 8 -9 36 -7 47 9 41 9 -4 15 0 15 10 0 9 7 16 15 16 13 0 13 -4 3 -22z
m802 2 c-11 -11 -23 -19 -27 -18 -5 0 -15 -2 -24 -6 -9 -4 -32 -3 -50 2 l-34
9 53 8 c29 4 55 12 58 16 3 5 14 9 25 9 19 0 19 0 -1 -20z m-873 -37 c-3 -10
-5 -2 -5 17 0 19 2 27 5 18 2 -10 2 -26 0 -35z m363 27 c0 -8 -28 -40 -35 -40
-1 0 -5 7 -8 14 -4 10 -1 13 8 10 10 -4 12 0 8 15 -4 17 -2 20 11 15 9 -3 16
-10 16 -14z m650 10 c0 -5 -9 -10 -19 -10 -11 0 -23 5 -26 10 -4 6 5 10 19 10
14 0 26 -4 26 -10z m-4334 -8 c-2 -4 -1 -14 3 -20 11 -18 41 -4 34 16 -3 11
-2 13 4 6 4 -6 15 -14 23 -17 12 -4 11 -6 -2 -6 -14 -1 -18 -10 -18 -42 0 -34
2 -39 14 -30 8 7 25 9 40 5 20 -5 26 -2 26 10 0 9 -4 16 -10 16 -5 0 -10 5
-10 10 0 19 21 10 29 -12 7 -19 4 -25 -18 -36 l-26 -12 31 5 31 6 2 -83 c1
-53 -2 -78 -8 -69 -5 8 -14 10 -21 6 -9 -5 -11 -4 -6 3 4 8 0 12 -11 12 -10 0
-29 9 -43 20 -14 11 -28 20 -32 20 -5 0 -16 8 -27 19 -10 10 -24 20 -30 22 -8
3 -8 14 -1 39 6 19 11 54 12 77 1 24 5 43 10 43 5 0 7 -4 4 -8z m3134 -2 c0
-5 -4 -10 -10 -10 -5 0 -10 5 -10 10 0 6 5 10 10 10 6 0 10 -4 10 -10z m315 0
c3 -5 1 -10 -4 -10 -6 0 -11 5 -11 10 0 6 2 10 4 10 3 0 8 -4 11 -10z m105 -9
c0 -24 -18 -37 -32 -23 -7 7 -6 15 3 26 19 21 29 20 29 -3z m870 9 c0 -5 -13
-10 -30 -10 -16 0 -30 5 -30 10 0 6 14 10 30 10 17 0 30 -4 30 -10z m-6680
-10 c0 -5 -5 -10 -11 -10 -5 0 -7 5 -4 10 3 6 8 10 11 10 2 0 4 -4 4 -10z
m2077 -12 c-3 -8 -6 -5 -6 6 -1 11 2 17 5 13 3 -3 4 -12 1 -19z m4474 8 c19
-7 40 -11 48 -8 19 6 9 -19 -12 -32 -13 -9 -20 -6 -32 12 -9 12 -22 22 -30 22
-8 0 -17 5 -20 10 -8 14 6 13 46 -4z m-8571 -60 c0 -52 -6 -43 -13 18 -3 30
-1 43 4 35 5 -8 9 -32 9 -53z m2520 55 c0 -10 39 -27 53 -23 14 4 7 -16 -8
-22 -26 -10 -90 27 -79 46 7 11 34 10 34 -1z m4457 -18 c-8 -7 -37 9 -31 19 3
5 12 4 20 -3 8 -6 13 -14 11 -16z m206 20 c-7 -2 -19 -2 -25 0 -7 3 -2 5 12 5
14 0 19 -2 13 -5z m391 -14 c-3 -5 -10 -7 -15 -3 -5 3 -7 10 -3 15 3 5 10 7
15 3 5 -3 7 -10 3 -15z m-514 7 c0 -2 -6 -9 -14 -15 -11 -9 -16 -9 -22 0 -4 8
-3 9 4 5 7 -4 12 -2 12 3 0 6 5 11 10 11 6 0 10 -2 10 -4z m1256 -5 c-3 -5 5
-16 19 -25 32 -21 31 -36 -3 -63 -19 -14 -36 -19 -55 -16 -40 8 -33 24 9 18
28 -3 35 -1 31 10 -3 7 1 16 9 19 22 8 17 25 -11 32 -27 7 -33 19 -12 27 18 8
19 8 13 -2z m98 -3 c3 3 6 0 6 -6 0 -10 -30 -32 -44 -32 -3 0 -6 7 -6 15 0 8
-7 15 -16 15 -8 0 -13 4 -9 9 3 6 17 6 34 1 16 -4 32 -6 35 -2z m148 -12 c12
-18 5 -26 -40 -46 -35 -16 -42 -17 -42 -4 0 8 8 18 18 22 17 7 17 8 1 24 -16
15 -18 14 -24 -23 -8 -47 -50 -75 -94 -64 l-26 7 32 26 c95 81 97 82 133 75
19 -3 38 -11 42 -17z m-6549 -33 c-4 -74 -11 -147 -14 -158 -1 -5 -5 19 -8 55
-6 62 -7 65 -31 63 -22 -1 -21 0 8 13 26 11 32 20 32 44 0 17 4 30 8 30 4 0 6
-21 5 -47z m2057 43 c0 -3 -4 -8 -10 -11 -5 -3 -10 -1 -10 4 0 6 5 11 10 11 6
0 10 -2 10 -4z m490 -13 c0 -12 -3 -14 -8 -7 -4 7 -18 14 -32 17 -21 4 -20 4
8 6 24 1 32 -3 32 -16z m2560 2 c0 -8 14 -17 35 -21 40 -7 48 -25 10 -22 -14
1 -25 5 -25 8 0 3 -15 5 -32 4 -44 -3 -53 4 -32 27 20 23 44 25 44 4z m595 6
c3 -5 1 -12 -5 -16 -5 -3 -10 1 -10 9 0 18 6 21 15 7z m75 -19 c0 -15 -2 -15
-10 -2 -13 20 -13 33 0 25 6 -3 10 -14 10 -23z m160 3 c0 -8 -7 -15 -15 -15
-26 0 -18 20 13 29 1 1 2 -6 2 -14z m320 11 c0 -3 -4 -8 -10 -11 -5 -3 -10 -1
-10 4 0 6 5 11 10 11 6 0 10 -2 10 -4z m-5695 -32 l56 5 -2 -77 c-1 -42 -4
-82 -6 -87 -2 -6 -18 -12 -36 -13 -17 -2 -49 -12 -70 -22 -45 -24 -47 -24 -47
-5 0 8 8 15 18 15 15 1 16 1 1 10 -14 8 -16 22 -12 82 2 40 4 84 4 97 -1 23 0
23 18 7 15 -14 31 -16 76 -12z m6093 14 c-2 -6 -10 -14 -16 -16 -7 -2 -10 2
-6 12 7 18 28 22 22 4z m-6618 -2 c0 -3 -4 -8 -10 -11 -5 -3 -10 -1 -10 4 0 6
5 11 10 11 6 0 10 -2 10 -4z m5770 -5 c0 -6 -4 -13 -10 -16 -5 -3 -10 1 -10 9
0 9 5 16 10 16 6 0 10 -4 10 -9z m162 -30 c-20 -47 -23 -47 -15 2 3 21 11 37
19 37 10 0 9 -9 -4 -39z m-5612 24 c0 -2 -10 -9 -22 -15 -22 -11 -22 -10 -4 4
21 17 26 19 26 11z m5286 -4 c-3 -4 -10 -21 -16 -36 -7 -19 -14 -25 -21 -18
-13 13 9 63 28 63 8 0 12 -4 9 -9z m273 0 c13 -8 12 -21 -5 -116 -2 -11 -13
-28 -25 -37 -12 -10 -18 -18 -14 -18 4 0 2 -7 -6 -16 -8 -10 -21 -13 -38 -10
-24 6 -24 5 -6 -5 11 -7 22 -13 24 -15 8 -7 -22 -34 -37 -34 -12 0 -13 9 -8
48 4 26 9 60 11 76 3 16 9 33 15 36 7 4 9 20 5 41 -5 29 -3 36 17 45 29 15 49
16 67 5z m-3401 -19 c22 2 38 0 36 -4 -3 -5 10 -8 30 -8 47 0 72 -10 54 -21
-10 -7 -10 -9 0 -9 6 0 12 -11 12 -25 0 -14 -5 -25 -11 -25 -5 0 -7 5 -3 12 4
7 3 8 -4 4 -6 -4 -9 -13 -6 -21 4 -8 10 -12 15 -9 5 3 9 -6 9 -20 0 -14 -5
-26 -11 -26 -6 0 -7 -5 -2 -12 4 -7 8 -38 8 -68 1 -30 -1 -47 -3 -37 -2 11
-13 17 -32 17 -15 0 -30 6 -33 14 -3 7 -19 16 -36 19 -20 4 -31 13 -31 23 0
11 -6 15 -20 11 -11 -3 -20 -1 -20 5 0 5 -6 6 -12 2 -9 -5 -10 -4 -3 4 6 5 19
12 30 15 18 4 18 5 -2 6 -18 1 -23 7 -24 31 -1 17 -2 49 -3 73 -3 51 3 74 14
57 5 -8 24 -11 48 -8z m3246 9 c3 -5 -1 -11 -9 -15 -8 -3 -15 -15 -15 -26 0
-11 -4 -20 -10 -20 -5 0 -10 9 -10 20 0 11 5 20 11 20 6 0 9 7 5 15 -6 16 19
21 28 6z m306 -16 c0 -8 -2 -15 -4 -15 -2 0 -12 -3 -21 -6 -15 -6 -15 -4 -4
15 16 25 29 27 29 6z m550 5 c0 -5 -4 -10 -10 -10 -5 0 -10 5 -10 10 0 6 5 10
10 10 6 0 10 -4 10 -10z m-6310 -7 c0 -5 -13 -17 -28 -27 l-27 -19 24 26 c26
28 31 32 31 20z m130 -62 l0 -69 -41 10 c-39 11 -40 11 -37 52 2 32 7 42 23
45 11 2 24 9 28 17 17 30 27 11 27 -55z m6150 49 c14 -11 20 -20 13 -20 -6 0
-18 -3 -27 -6 -11 -4 -19 2 -25 17 -7 18 -10 19 -10 7 -1 -14 -10 -18 -38 -18
-35 1 -36 2 -20 15 11 7 25 11 32 9 7 -3 16 -1 20 5 9 16 27 13 55 -9z m-6193
4 c-3 -3 -12 -4 -19 -1 -8 3 -5 6 6 6 11 1 17 -2 13 -5z m2338 -6 c16 3 25 0
25 -8 0 -7 8 -10 19 -7 15 3 20 -1 23 -22 4 -29 -5 -88 -12 -82 -3 2 -15 -1
-27 -7 -18 -10 -20 -18 -16 -52 5 -38 4 -40 -22 -40 l-27 0 4 70 c2 39 1 70
-3 70 -4 0 -5 19 -4 43 3 49 5 56 11 41 3 -6 16 -9 29 -6z m2272 6 c-3 -3 -12
-4 -19 -1 -8 3 -5 6 6 6 11 1 17 -2 13 -5z m793 -11 c0 -7 -7 -13 -15 -13 -8
0 -15 -4 -15 -10 0 -5 -4 -10 -10 -10 -13 0 -13 23 0 36 15 15 40 13 40 -3z
m-5472 -38 c1 -32 -2 -43 -12 -39 -8 3 -11 16 -9 32 11 66 20 69 21 7z m1612
35 c8 -5 11 -10 5 -10 -5 0 -17 5 -25 10 -8 5 -10 10 -5 10 6 0 17 -5 25 -10z
m1127 -12 c-3 -8 -6 -5 -6 6 -1 11 2 17 5 13 3 -3 4 -12 1 -19z m2090 5 c2 -6
-5 -13 -17 -16 -22 -6 -23 -5 -14 18 7 17 25 16 31 -2z m-5187 -23 c0 -16 -4
-30 -9 -30 -12 0 -24 37 -16 50 12 20 25 10 25 -20z m5078 -9 c2 -11 1 -21 -2
-21 -12 0 -55 43 -50 51 9 15 49 -8 52 -30z m52 23 c0 -8 -4 -12 -10 -9 -5 3
-10 10 -10 16 0 5 5 9 10 9 6 0 10 -7 10 -16z m-7110 -66 c-1 -57 -3 -69 -11
-55 -10 17 -4 127 7 127 2 0 4 -33 4 -72z m8280 60 c0 -11 -36 -29 -43 -21 -4
3 -9 -1 -12 -9 -7 -17 -45 -13 -45 4 0 6 7 8 15 4 8 -3 15 -1 15 4 0 6 -4 10
-10 10 -5 0 -10 3 -10 8 0 4 20 7 45 8 25 0 45 -3 45 -8z m60 -13 c-12 -13
-25 -23 -29 -22 -3 0 -17 -5 -31 -12 l-25 -14 19 22 c11 11 25 21 31 21 7 0
18 7 25 15 7 8 17 15 23 15 6 0 0 -11 -13 -25z m-6419 3 c8 0 20 -13 26 -29 9
-24 9 -29 -3 -29 -9 0 -12 5 -8 11 4 7 0 9 -13 5 -11 -4 -31 -2 -44 3 -22 9
-22 10 11 11 30 1 32 2 14 10 -12 5 -25 14 -30 21 -5 9 -2 10 12 4 10 -4 26
-7 35 -7z m339 3 c0 -5 -10 -11 -22 -14 -22 -6 -22 -6 -4 8 23 17 26 18 26 6z
m5810 -6 c0 -8 -7 -15 -16 -15 -14 0 -14 3 -4 15 7 8 14 15 16 15 2 0 4 -7 4
-15z m454 -8 c15 -24 -3 -35 -20 -13 -8 11 -14 24 -14 29 0 13 22 3 34 -16z
m-1344 3 c0 -5 -4 -10 -10 -10 -5 0 -10 5 -10 10 0 6 5 10 10 10 6 0 10 -4 10
-10z m985 0 c-3 -5 -11 -10 -16 -10 -6 0 -7 5 -4 10 3 6 11 10 16 10 6 0 7 -4
4 -10z m410 0 c-3 -5 -1 -10 4 -10 6 0 11 -4 11 -10 0 -5 -7 -10 -15 -10 -8 0
-15 9 -15 20 0 11 5 20 11 20 5 0 7 -4 4 -10z m-1001 -84 c-6 -65 -25 -105
-21 -43 2 22 -2 38 -9 41 -9 3 -11 -1 -7 -11 4 -10 2 -14 -5 -9 -16 10 -12 66
6 66 8 0 12 6 9 14 -8 20 4 28 20 15 10 -9 12 -28 7 -73z m62 73 c3 -6 1 -16
-5 -22 -9 -9 -14 -8 -21 3 -9 15 -4 30 10 30 5 0 12 -5 16 -11z m-5436 -3 c0
-2 -7 -7 -16 -10 -8 -3 -12 -2 -9 4 6 10 25 14 25 6z m1534 -11 c-4 -8 -8 -15
-10 -15 -2 0 -4 7 -4 15 0 8 4 15 10 15 5 0 7 -7 4 -15z m4029 -3 c-13 -2 -23
-8 -23 -13 0 -5 -7 -9 -15 -9 -8 0 -14 6 -12 13 2 14 47 26 62 18 6 -3 0 -7
-12 -9z m297 -13 c0 -20 -31 -69 -44 -69 -10 0 -11 10 -5 43 4 23 8 46 9 50 0
11 40 -12 40 -24z m-5900 11 c0 -5 -8 -10 -17 -10 -15 0 -16 2 -3 10 19 12 20
12 20 0z m5807 -12 c-3 -8 -6 -5 -6 6 -1 11 2 17 5 13 3 -3 4 -12 1 -19z m393
11 c0 -6 -5 -20 -11 -32 -9 -16 -9 -22 1 -25 7 -3 -2 -11 -20 -18 -29 -13 -35
-12 -50 1 -9 8 -23 15 -30 15 -8 0 -5 -7 8 -19 23 -19 28 -31 13 -31 -5 0 -35
-16 -67 -35 -57 -35 -94 -44 -94 -25 0 6 5 10 11 10 6 0 9 7 5 15 -3 10 13 27
52 52 74 50 93 61 115 69 9 3 17 10 17 14 0 7 17 15 43 19 4 0 7 -4 7 -10z
m57 -1 c8 20 22 13 16 -9 -4 -14 -12 -19 -24 -16 -11 3 -19 1 -19 -4 0 -5 8
-9 18 -9 16 -1 16 -1 -1 -11 -9 -5 -22 -7 -27 -4 -13 8 -13 35 0 35 6 0 10 8
10 18 0 15 2 15 11 2 8 -11 12 -12 16 -2z m-8951 -105 c-4 -73 -3 -101 4 -86
5 13 10 52 11 88 1 36 6 68 11 71 5 4 9 -4 8 -17 -3 -37 -1 -51 9 -45 8 5 3
-125 -5 -133 -2 -2 -5 25 -5 60 l-2 64 -7 -57 c-8 -60 -33 -99 -52 -80 -6 6
-7 16 -2 24 12 18 13 31 15 123 1 44 4 83 6 88 12 22 15 -4 9 -100z m7724 97
c0 -5 -4 -10 -10 -10 -5 0 -10 5 -10 10 0 6 5 10 10 10 6 0 10 -4 10 -10z m61
-11 l24 -21 -25 6 c-14 3 -28 6 -31 6 -4 0 -9 7 -13 15 -8 22 18 19 45 -6z
m-7467 -106 c-6 -222 -15 -356 -24 -374 -7 -12 -7 -20 0 -24 5 -3 10 -13 10
-21 0 -10 -12 -14 -42 -14 l-43 0 6 227 c4 126 7 240 8 255 1 20 10 31 39 46
20 11 40 20 43 21 3 0 5 -52 3 -116z m1936 107 c0 -5 -4 -10 -10 -10 -5 0 -10
5 -10 10 0 6 5 10 10 10 6 0 10 -4 10 -10z m3330 -21 c0 -12 -7 -19 -17 -18
-11 0 -13 3 -5 6 6 2 12 9 12 14 0 6 -4 7 -10 4 -5 -3 -10 1 -10 9 0 10 6 13
15 10 8 -4 15 -15 15 -25z m2427 -1 c-3 -7 -5 -2 -5 12 0 14 2 19 5 13 2 -7 2
-19 0 -25z m1008 22 c3 -6 -1 -13 -10 -16 -19 -8 -30 0 -20 15 8 14 22 14 30
1z m-6145 -35 c0 -19 -4 -35 -10 -35 -11 0 -14 53 -3 63 11 12 13 8 13 -28z
m5030 31 c0 -3 -4 -8 -10 -11 -5 -3 -10 -1 -10 4 0 6 5 11 10 11 6 0 10 -2 10
-4z m260 -42 c0 -12 -4 -25 -10 -29 -5 -3 -7 -12 -3 -20 3 -9 -1 -15 -8 -15
-11 0 -13 14 -11 55 3 47 6 54 18 44 8 -6 14 -22 14 -35z m155 -2 c-3 -20 -10
-39 -16 -43 -8 -5 -8 -8 -1 -13 6 -4 9 -13 5 -22 -4 -11 -8 -12 -20 -3 -7 7
-12 18 -9 26 3 8 1 11 -4 8 -6 -3 -10 -1 -10 5 0 6 -7 18 -15 27 -8 8 -12 19
-9 24 3 6 12 2 20 -8 11 -15 21 -5 12 12 -5 7 36 33 45 28 4 -3 5 -21 2 -41z
m450 38 c-3 -5 -12 -10 -18 -10 -7 0 -6 4 3 10 19 12 23 12 15 0z m-6575 -20
c-32 -25 -43 -25 -28 0 7 11 22 20 33 20 18 0 18 -2 -5 -20z m430 5 c-7 -8
-17 -15 -22 -15 -6 0 -5 7 2 15 7 8 17 15 22 15 6 0 5 -7 -2 -15z m327 3 c56
-20 42 -68 -21 -68 -19 0 -22 6 -24 40 -3 44 -2 45 45 28z m953 2 c-8 -5 -19
-10 -25 -10 -5 0 -3 5 5 10 8 5 20 10 25 10 6 0 3 -5 -5 -10z m3819 4 c17 -4
31 -13 31 -20 0 -17 -16 -18 -24 -1 -5 10 -7 10 -12 0 -8 -19 -22 -16 -34 7
-12 22 -8 23 39 14z m-5358 -17 c-1 -12 -15 -9 -19 4 -3 6 1 10 8 8 6 -3 11
-8 11 -12z m-2156 -69 c-6 -90 -14 -304 -15 -377 0 -42 -3 -52 -14 -48 -8 3
-16 1 -18 -5 -2 -6 -13 -8 -26 -4 -21 7 -23 13 -20 64 3 49 6 57 24 60 15 2
24 13 28 34 5 25 1 35 -25 59 l-30 28 6 113 c8 135 8 135 37 141 60 11 58 13
53 -65z m1790 62 c3 -5 1 -10 -4 -10 -6 0 -11 5 -11 10 0 6 2 10 4 10 3 0 8
-4 11 -10z m461 -3 c32 -2 39 -6 37 -21 -1 -11 3 -30 8 -42 4 -13 5 -23 1 -23
-24 4 -33 -4 -12 -11 22 -6 23 -8 7 -15 -12 -5 -26 1 -48 23 -24 24 -27 31
-15 35 9 4 16 11 16 17 0 6 -5 8 -12 4 -8 -5 -9 -2 -5 10 5 14 3 16 -12 11
-12 -3 -21 0 -24 9 -4 9 -1 13 7 10 6 -2 30 -6 52 -7z m1499 3 c25 -11 -1 -11
-35 0 -20 6 -21 8 -5 8 11 0 29 -3 40 -8z m5115 -1 c0 -8 -15 -12 -24 -6 -2 1
-14 -7 -27 -18 -12 -11 -20 -15 -17 -10 3 6 8 17 11 26 6 17 57 24 57 8z
m-5210 -9 c-20 -13 -33 -13 -25 0 3 6 14 10 23 10 15 0 15 -2 2 -10z m1488
-10 c3 -7 0 -10 -7 -6 -6 4 -11 2 -11 -3 0 -6 5 -11 10 -11 6 0 10 -5 10 -11
0 -8 -5 -8 -15 1 -18 15 -20 53 -3 48 6 -2 14 -10 16 -18z m2552 10 c0 -5 -7
-10 -15 -10 -8 0 -15 5 -15 10 0 6 7 10 15 10 8 0 15 -4 15 -10z m1084 -5
c-25 -19 -38 -19 -22 0 7 8 19 14 27 15 11 0 9 -4 -5 -15z m-8884 -77 c0 -45
-2 -79 -4 -77 -9 10 -15 159 -6 159 6 0 10 -36 10 -82z m3051 75 c4 -48 3 -93
-3 -93 -4 0 -22 8 -40 18 -18 10 -44 24 -57 31 -28 15 -18 30 31 41 45 11 68
12 69 3z m107 -9 c6 -2 12 -12 12 -22 0 -10 5 -23 12 -30 9 -9 8 -12 -5 -12
-27 0 -20 -31 16 -62 l32 -28 -45 6 c-63 9 -98 44 -95 92 1 20 3 45 4 55 1 17
17 17 69 1z m659 10 c-3 -3 -12 -4 -19 -1 -8 3 -5 6 6 6 11 1 17 -2 13 -5z
m5023 -4 c0 -5 -2 -10 -4 -10 -3 0 -8 5 -11 10 -3 6 -1 10 4 10 6 0 11 -4 11
-10z m-6925 -10 c3 -5 1 -10 -4 -10 -6 0 -11 5 -11 10 0 6 2 10 4 10 3 0 8 -4
11 -10z m536 -3 c-6 -6 -11 -20 -11 -31 0 -17 -2 -18 -10 -6 -16 25 -11 46 11
47 17 2 19 -1 10 -10z m3056 -34 c-3 -10 -5 -2 -5 17 0 19 2 27 5 18 2 -10 2
-26 0 -35z m-3537 33 c0 -2 -7 -6 -15 -10 -8 -3 -15 -1 -15 4 0 6 7 10 15 10
8 0 15 -2 15 -4z m1244 -12 c21 -20 21 -45 0 -37 -11 4 -12 8 -4 13 8 5 7 9
-4 13 -9 4 -16 11 -16 17 0 14 6 13 24 -6z m516 12 c0 -2 -11 -6 -25 -8 -13
-3 -22 -1 -19 3 5 9 44 13 44 5z m4598 -16 c-7 -11 -16 -20 -20 -20 -5 0 -3 9
4 20 7 11 16 20 20 20 5 0 3 -9 -4 -20z m-6090 -26 c-3 -14 -5 -12 -10 9 -3
19 -2 25 4 19 6 -6 8 -18 6 -28z m6547 26 c3 -5 2 -10 -4 -10 -5 0 -13 5 -16
10 -3 6 -2 10 4 10 5 0 13 -4 16 -10z m-8364 -127 c-2 -134 -11 -266 -18 -273
-3 -3 -3 63 1 145 3 83 6 174 6 204 0 30 3 52 6 48 4 -3 6 -59 5 -124z m1679
123 c0 -2 -7 -7 -16 -10 -8 -3 -12 -2 -9 4 6 10 25 14 25 6z m5335 -6 c3 -5
-1 -10 -9 -10 -9 0 -16 5 -16 10 0 6 4 10 9 10 6 0 13 -4 16 -10z m694 -8 c7
2 24 -12 38 -29 l26 -33 -27 0 c-19 0 -26 -5 -26 -20 0 -11 5 -20 11 -20 5 0
7 5 4 10 -3 6 1 10 10 10 11 0 15 -5 12 -14 -3 -7 0 -19 6 -26 9 -10 9 -11 -2
-5 -11 6 -13 4 -8 -8 9 -24 -20 -22 -60 6 -32 20 -34 25 -28 62 3 22 10 44 15
49 5 5 6 16 3 25 -4 12 -3 13 4 3 6 -7 15 -12 22 -10z m621 9 c0 -5 -14 -14
-31 -21 -20 -9 -26 -16 -18 -20 18 -12 -22 -28 -51 -21 -22 6 -20 9 30 38 59
34 70 38 70 24z m174 -6 c-4 -8 -7 -15 -9 -15 -2 0 -5 7 -9 15 -3 9 0 15 9 15
9 0 12 -6 9 -15z m-9222 -31 c120 -70 158 -97 158 -115 0 -12 6 -16 19 -12 29
7 22 -37 -8 -48 -19 -8 -22 -6 -17 7 5 14 1 15 -21 10 -16 -4 -45 -9 -66 -13
-26 -4 -36 -10 -33 -19 3 -8 1 -14 -3 -14 -5 0 -11 5 -13 11 -2 7 -62 -2 -170
-24 -118 -24 -170 -31 -177 -24 -27 27 -39 -39 -42 -231 -1 -57 -4 -101 -6
-98 -5 5 -4 251 1 299 3 28 -7 33 -50 21 -15 -4 -20 -14 -20 -37 -1 -188 -7
-307 -18 -307 -8 0 -10 40 -8 148 1 81 5 161 7 178 6 33 36 54 78 54 32 0 47
32 48 100 1 51 3 57 15 45 8 -8 21 -12 29 -9 12 5 15 -3 15 -35 0 -23 5 -41
10 -41 6 0 10 21 10 48 1 41 2 45 14 30 7 -10 17 -18 22 -18 5 0 40 29 78 65
37 36 72 65 77 65 4 0 36 -16 71 -36z m1475 30 c-3 -3 -12 -4 -19 -1 -8 3 -5
6 6 6 11 1 17 -2 13 -5z m1703 -19 c0 -26 0 -26 -24 -8 -21 16 -22 19 -8 25
28 11 32 9 32 -17z m73 6 c73 -37 105 -68 100 -95 -3 -14 -9 -23 -14 -20 -5 3
-6 11 -2 17 4 8 2 8 -9 -1 -13 -10 -25 -7 -72 20 -55 31 -64 46 -50 82 7 19 2
20 47 -3z m4437 -24 c0 -5 -7 -4 -15 3 -8 7 -15 20 -15 29 1 13 3 13 15 -3 8
-11 15 -24 15 -29z m1046 -5 c-15 -15 -16 -15 -16 0 0 9 3 24 6 33 7 16 8 16
17 0 6 -12 5 -22 -7 -33z m-7344 29 l28 -1 -3 -183 -2 -184 -32 10 c-18 6 -30
14 -26 20 3 5 -3 6 -16 2 -20 -6 -21 -3 -21 78 0 46 3 125 6 174 6 76 9 90 23
88 9 -2 28 -4 43 -4z m1218 1 c8 -4 15 -15 15 -26 0 -13 8 -20 29 -22 34 -4
56 -21 35 -28 -33 -11 -79 -12 -80 -2 -1 6 -3 18 -4 26 -3 31 -17 49 -32 43
-11 -4 -14 -2 -9 5 8 13 23 14 46 4z m5181 -9 c8 -8 2 -11 -24 -10 -26 1 -31
4 -23 13 13 13 32 12 47 -3z m1383 8 c3 -4 -6 -13 -20 -20 -35 -16 -40 -14
-19 9 20 22 31 25 39 11z m-8039 -10 c3 -6 -3 -15 -12 -21 -15 -9 -12 -10 15
-5 l32 7 0 -129 c0 -141 -6 -177 -26 -169 -7 3 -16 1 -19 -5 -4 -5 -21 -9 -38
-7 l-32 2 3 138 c2 76 7 138 12 138 6 0 6 9 0 24 -5 13 -6 27 -3 30 10 10 61
7 68 -3z m170 -153 c-4 -90 -8 -165 -10 -168 -2 -3 -28 -3 -58 -2 -49 3 -55 6
-52 24 3 11 5 78 6 150 1 127 2 129 25 138 13 5 31 7 41 3 11 -4 14 -3 9 5 -5
8 2 12 20 12 l27 0 -8 -162z m1078 148 c4 -10 1 -13 -8 -9 -8 3 -12 9 -9 14 7
12 11 11 17 -5z m-686 -2 c-3 -3 -12 -4 -19 -1 -8 3 -5 6 6 6 11 1 17 -2 13
-5z m6888 -4 c3 -5 1 -10 -4 -10 -6 0 -11 5 -11 10 0 6 2 10 4 10 3 0 8 -4 11
-10z m-8855 -21 c0 -5 -10 -9 -21 -9 -18 0 -19 2 -9 15 12 15 30 12 30 -6z
m6670 4 c0 -5 -4 -14 -9 -21 -7 -11 -9 -11 -14 1 -3 8 -3 18 0 21 9 8 23 7 23
-1z m2692 -15 c-5 -5 -21 -6 -37 -2 -33 8 -15 23 21 16 16 -3 22 -8 16 -14z
m-499 -19 c-4 -15 -11 -19 -27 -15 -11 3 -24 6 -28 6 -18 0 -6 17 20 26 34 13
42 10 35 -17z m-4688 11 c-3 -5 -13 -10 -21 -10 -8 0 -14 5 -14 10 0 6 9 10
21 10 11 0 17 -4 14 -10z m325 -5 c-30 -8 -59 -14 -65 -14 -20 2 71 27 95 27
14 0 0 -6 -30 -13z m3585 5 c-3 -5 -10 -10 -16 -10 -5 0 -9 5 -9 10 0 6 7 10
16 10 8 0 12 -4 9 -10z m1110 0 c3 -5 2 -10 -4 -10 -5 0 -13 5 -16 10 -3 6 -2
10 4 10 5 0 13 -4 16 -10z m-7057 -25 c-3 -3 -9 2 -12 12 -6 14 -5 15 5 6 7
-7 10 -15 7 -18z m1982 21 c0 -2 3 -12 6 -21 6 -15 4 -15 -14 -4 -18 12 -26
11 -51 -4 -16 -9 -35 -17 -43 -17 -7 0 7 11 32 25 42 22 70 30 70 21z m149
-12 c14 -13 -12 -13 -40 0 l-34 16 35 -6 c19 -4 37 -8 39 -10z m55 1 c-7 -17
-44 -21 -44 -4 0 6 7 9 15 5 8 -3 15 -1 15 4 0 6 4 10 10 10 5 0 7 -7 4 -15z
m291 5 c13 -5 14 -9 5 -9 -8 0 -24 4 -35 9 -13 5 -14 9 -5 9 8 0 24 -4 35 -9z
m2169 -1 c3 -3 -8 -6 -24 -7 -17 -1 -30 2 -30 6 0 9 45 10 54 1z m-3567 -21
c-3 -8 -6 -5 -6 6 -1 11 2 17 5 13 3 -3 4 -12 1 -19z m-416 -91 c-8 -8 -11 4
-11 39 0 66 14 80 18 19 2 -26 -2 -53 -7 -58z m206 56 c-3 -10 -5 -2 -5 17 0
19 2 27 5 18 2 -10 2 -26 0 -35z m693 28 c5 -7 35 -12 83 -15 24 -1 25 -2 11
-13 -14 -10 -21 -10 -33 -1 -10 8 -9 4 3 -9 18 -22 18 -22 -2 -18 -15 3 -19
-1 -15 -16 3 -12 11 -18 19 -15 7 3 16 2 18 -3 3 -4 -10 -13 -29 -19 -20 -6
-35 -6 -35 -1 0 5 7 9 16 9 29 0 4 17 -35 24 -41 6 -51 19 -51 67 0 27 3 30
23 23 12 -4 24 -10 27 -13z m520 9 c17 -6 9 -7 -25 -3 -27 3 -52 7 -54 9 -8 7
54 2 79 -6z m178 3 c-10 -2 -26 -2 -35 0 -10 3 -2 5 17 5 19 0 27 -2 18 -5z
m466 -3 c-9 -8 -74 -9 -79 -1 -2 5 15 8 40 7 24 0 41 -3 39 -6z m2204 -3 c8
-10 6 -13 -7 -13 -11 0 -17 6 -14 13 3 7 6 13 8 13 1 0 7 -6 13 -13z m-4103
-7 c3 -5 -3 -10 -14 -10 -12 0 -21 5 -21 10 0 6 6 10 14 10 8 0 18 -4 21 -10z
m2835 1 c0 -5 -9 -7 -20 -4 -11 3 -20 7 -20 9 0 2 9 4 20 4 11 0 20 -4 20 -9z
m3031 -1 c10 -6 19 -16 19 -22 0 -6 -3 -9 -6 -5 -3 3 -17 2 -30 -3 -21 -8 -24
-7 -24 15 0 27 11 31 41 15z m-5971 -10 c0 -5 -4 -10 -10 -10 -5 0 -10 5 -10
10 0 6 5 10 10 10 6 0 10 -4 10 -10z m467 -16 c2 -13 1 -15 -4 -4 -3 8 -11 19
-17 23 -7 6 -6 7 4 4 8 -2 16 -12 17 -23z m5963 16 c12 -7 10 -9 -8 -7 -12 0
-22 5 -22 9 0 11 12 10 30 -2z m-5290 -20 c0 -5 -7 -10 -16 -10 -8 0 -12 -4
-9 -10 3 -5 1 -10 -4 -10 -15 0 -14 27 2 33 20 9 27 8 27 -3z m-4096 -27 c-4
-13 -11 -20 -20 -16 -20 7 -17 31 4 35 22 5 22 6 16 -19z m3016 15 c0 -4 -12
-8 -26 -8 -14 0 -23 4 -20 8 2 4 14 8 25 8 12 0 21 -4 21 -8z m35 2 c3 -5 -1
-10 -9 -10 -9 0 -16 5 -16 10 0 6 4 10 9 10 6 0 13 -4 16 -10z m5279 -5 c18
-8 18 -9 0 -22 -10 -7 -26 -13 -36 -13 -16 0 -20 6 -17 26 0 4 -5 10 -11 14
-17 10 39 6 64 -5z m596 -10 c0 -9 -9 -15 -25 -15 -22 0 -24 2 -13 15 17 19
38 19 38 0z m-4890 -4 c0 -5 -13 -11 -30 -13 -30 -5 -41 6 -17 15 20 9 47 8
47 -2z m2800 -1 c0 -5 -4 -10 -10 -10 -5 0 -10 5 -10 10 0 6 5 10 10 10 6 0
10 -4 10 -10z m1360 0 c0 -5 -2 -10 -4 -10 -3 0 -8 5 -11 10 -3 6 -1 10 4 10
6 0 11 -4 11 -10z m600 -2 c0 -5 -4 -7 -9 -3 -5 3 -12 1 -16 -5 -3 -5 -1 -10
4 -10 6 0 11 -4 11 -10 0 -5 -11 -10 -25 -10 -18 0 -25 5 -25 18 0 10 2 21 4
23 9 9 56 6 56 -3z m-5732 -60 c3 -62 -1 -66 -55 -52 -27 7 -21 24 9 24 14 0
18 5 14 16 -3 9 -6 20 -6 25 0 5 -7 9 -16 9 -13 0 -14 -3 -5 -14 9 -11 6 -12
-14 -8 -25 4 -35 22 -12 22 9 0 8 3 -2 9 -23 15 -3 28 41 27 l43 -1 3 -57z
m44 -5 c-8 -42 -17 -24 -13 25 3 37 6 42 11 22 3 -14 4 -35 2 -47z m843 47
c-3 -5 -17 -10 -31 -10 -14 0 -22 4 -19 10 3 6 17 10 31 10 14 0 22 -4 19 -10z
m4137 -4 c4 -6 -7 -16 -25 -24 -21 -9 -33 -9 -35 -2 -2 5 -10 10 -18 10 -8 0
-14 6 -14 13 0 15 82 18 92 3z m-4084 -10 c-10 -7 -15 -15 -12 -18 5 -6 -81
-38 -100 -38 -14 1 21 21 42 25 10 2 18 4 20 4 1 1 4 1 7 1 3 0 14 9 25 20 11
11 23 20 28 20 4 0 -1 -7 -10 -14z m4592 4 c0 -5 -2 -10 -4 -10 -3 0 -8 5 -11
10 -3 6 -1 10 4 10 6 0 11 -4 11 -10z m315 0 c-3 -5 -13 -10 -21 -10 -8 0 -14
5 -14 10 0 6 9 10 21 10 11 0 17 -4 14 -10z m442 -10 c1 -16 -2 -18 -20 -11
-12 4 -29 7 -37 5 -8 -2 -1 3 15 11 39 19 40 18 42 -5z m-2217 -10 c16 0 30
-7 34 -15 3 -8 1 -15 -4 -15 -6 0 -10 5 -10 11 0 6 -7 9 -15 6 -8 -4 -26 0
-40 7 -17 9 -22 16 -13 18 7 3 15 1 16 -3 2 -5 16 -9 32 -9z m1050 0 c0 -5 -4
-10 -10 -10 -5 0 -10 5 -10 10 0 6 5 10 10 10 6 0 10 -4 10 -10z m624 -6 c3
-8 2 -12 -4 -9 -6 3 -10 10 -10 16 0 14 7 11 14 -7z m450 1 c3 -8 1 -15 -4
-15 -6 0 -10 7 -10 15 0 8 2 15 4 15 2 0 6 -7 10 -15z m-5454 -5 c0 -5 -4 -10
-10 -10 -5 0 -10 5 -10 10 0 6 5 10 10 10 6 0 10 -4 10 -10z m230 -64 c4 -54
3 -62 -12 -63 -21 -2 -30 25 -27 75 3 38 17 67 28 57 3 -4 8 -34 11 -69z
m2923 67 c-19 -4 -21 -7 -12 -24 6 -12 17 -18 27 -15 9 3 28 -1 42 -10 l25
-14 -27 6 c-28 6 -40 -9 -15 -19 6 -3 -11 -6 -39 -6 -40 -1 -54 3 -60 17 -4 9
-6 20 -6 25 1 4 -4 8 -10 8 -7 1 1 5 17 10 40 11 -98 0 -145 -11 -25 -6 -17
-7 33 -3 62 5 69 3 87 -18 29 -36 25 -51 -13 -48 -18 2 -38 0 -45 -5 -8 -4
-12 -1 -12 9 0 9 -5 13 -10 10 -6 -4 -8 -10 -5 -15 3 -5 -21 -11 -52 -15 -32
-3 -112 -12 -178 -20 -66 -8 -185 -21 -265 -30 -352 -39 -430 -51 -430 -65 0
-4 -26 -10 -57 -13 -32 -3 -134 -14 -228 -26 -256 -31 -319 -35 -311 -22 4 6
20 11 37 11 16 0 29 5 29 10 0 6 8 10 17 10 9 0 13 3 10 6 -4 4 -20 1 -37 -6
-33 -14 -54 -6 -30 11 8 5 43 8 77 6 35 -1 57 1 50 5 -7 5 0 8 18 9 93 2 156
9 174 18 26 14 102 15 81 1 -12 -8 -9 -10 12 -10 14 0 28 5 30 10 2 6 39 14
83 18 71 6 81 10 92 32 8 17 9 26 1 31 -10 7 19 13 112 24 25 3 182 23 350 45
168 21 330 42 360 45 30 3 78 9 105 14 50 9 161 12 118 4z m1190 -10 c2 -10 8
-26 12 -37 7 -16 5 -18 -26 -11 -19 4 -41 14 -49 22 -13 13 -13 14 7 9 16 -5
23 -2 28 14 8 25 21 26 28 3z m626 3 c9 -10 8 -16 -4 -26 -13 -11 -14 -10 -9
5 4 10 1 21 -7 26 -8 5 -9 9 -3 9 6 0 17 -6 23 -14z m121 10 c0 -2 -7 -7 -16
-10 -8 -3 -12 -2 -9 4 6 10 25 14 25 6z m224 -20 c-10 -8 -21 -12 -23 -10 -3
2 4 11 15 18 10 8 21 12 23 10 3 -2 -4 -11 -15 -18z m76 20 c0 -2 -7 -7 -16
-10 -8 -3 -12 -2 -9 4 6 10 25 14 25 6z m-6230 -26 c0 -9 -25 -20 -43 -20 -7
0 -6 4 3 10 8 5 11 10 7 10 -5 0 -6 4 -2 10 6 10 35 2 35 -10z m4140 -14 c7
-9 9 -16 4 -17 -5 0 -19 -2 -31 -3 -12 -1 -20 1 -17 6 3 4 -4 8 -15 8 -20 0
-20 1 -4 19 18 21 38 17 63 -13z m-6728 -7 c-4 -4 -25 -9 -47 -13 l-40 -7 28
18 c15 10 27 21 27 25 0 5 9 3 20 -4 11 -7 16 -15 12 -19z m2504 -7 c-18 -16
-19 -16 -12 1 3 10 6 24 6 30 0 8 4 7 12 -1 10 -9 8 -16 -6 -30z m749 28 c3
-5 1 -10 -4 -10 -6 0 -11 5 -11 10 0 6 2 10 4 10 3 0 8 -4 11 -10z m3360 0
c-27 -12 -35 -12 -35 0 0 6 12 10 28 9 24 0 25 -1 7 -9z m1253 -3 c10 4 13 2
8 -5 -4 -7 -14 -12 -22 -12 -8 0 -13 -5 -11 -11 4 -20 -20 -20 -26 0 -6 23 13
45 26 32 5 -5 16 -7 25 -4z m748 -33 c-3 -8 -10 -12 -16 -9 -6 3 -13 -2 -17
-12 -10 -27 -25 -33 -39 -15 -10 14 -14 14 -28 3 -9 -8 -19 -11 -23 -7 -3 3 0
6 7 6 7 0 11 2 8 5 -3 3 -18 -1 -34 -10 -35 -18 -74 -20 -74 -2 0 8 -3 8 -8 1
-4 -6 -15 -13 -25 -17 -10 -4 -15 -11 -12 -17 3 -5 -3 -10 -15 -10 -12 0 -19
-4 -16 -8 3 -5 -13 -9 -35 -10 -22 -1 -48 -6 -56 -11 -10 -5 -29 -5 -47 0 -23
7 -34 5 -48 -8 -17 -15 -20 -15 -43 7 l-25 23 0 -21 c0 -26 -19 -30 -21 -4 -6
80 -8 76 45 87 38 7 51 6 54 -4 3 -9 7 -8 16 3 11 14 26 18 140 32 42 5 57 4
52 -5 -5 -7 -1 -9 8 -5 9 3 16 1 16 -5 0 -6 5 -11 10 -11 6 0 10 7 10 15 0 20
48 31 73 16 15 -10 17 -10 12 0 -5 8 -4 10 4 5 6 -4 19 -2 28 5 21 18 63 23
63 7 0 -8 6 -6 18 5 15 16 17 16 20 2 2 -9 1 -23 -2 -31z m-6656 32 c0 -2 -7
-7 -16 -10 -8 -3 -12 -2 -9 4 6 10 25 14 25 6z m1387 -2 c-3 -3 -12 -4 -19 -1
-8 3 -5 6 6 6 11 1 17 -2 13 -5z m-3150 -36 c-3 -7 -5 -2 -5 12 0 14 2 19 5
13 2 -7 2 -19 0 -25z m2183 22 c0 -5 -7 -10 -16 -10 -8 0 -12 5 -9 10 3 6 10
10 16 10 5 0 9 -4 9 -10z m930 0 c0 -5 -7 -10 -16 -10 -8 0 -12 5 -9 10 3 6
10 10 16 10 5 0 9 -4 9 -10z m180 0 c0 -5 -9 -10 -19 -10 -26 0 -36 -17 -14
-23 10 -2 4 -2 -13 0 -20 2 -36 -2 -44 -12 -7 -8 -16 -12 -22 -9 -5 4 -5 11 1
18 6 7 7 17 3 22 -4 4 1 2 11 -5 16 -13 18 -12 16 6 0 4 8 10 18 14 27 11 63
10 63 -1z m3315 0 c3 -5 2 -10 -4 -10 -5 0 -13 5 -16 10 -3 6 -2 10 4 10 5 0
13 -4 16 -10z m870 0 c3 -5 -1 -10 -9 -10 -8 0 -18 5 -21 10 -3 6 1 10 9 10 8
0 18 -4 21 -10z m285 -5 c-7 -8 -16 -12 -21 -9 -13 8 -1 24 18 24 13 0 13 -3
3 -15z m-5234 -32 c-11 -11 -17 4 -9 23 7 18 8 18 11 1 2 -10 1 -21 -2 -24z
m-3014 -104 c-1 -68 -5 -148 -8 -176 l-6 -53 -43 0 c-24 0 -51 3 -60 6 -25 10
2 24 48 24 20 0 38 5 38 10 1 6 3 15 4 20 1 6 3 76 4 156 1 110 4 145 13 142
9 -3 12 -38 10 -129z m1176 68 c-7 -6 -30 -13 -50 -14 -36 -3 -38 -1 -38 26 0
27 4 30 48 38 44 8 47 7 50 -14 2 -13 -3 -29 -10 -36z m2227 53 c-3 -5 -12 -7
-20 -3 -21 7 -19 13 6 13 11 0 18 -4 14 -10z m103 -10 c-7 -11 -22 -20 -33
-20 -17 0 -15 3 10 19 38 25 37 25 23 1z m-3710 -41 c1 -23 -1 -39 -3 -37 -8
8 -13 88 -6 83 5 -2 9 -23 9 -46z m240 27 c-4 -19 -1 -22 14 -18 22 5 35 -23
18 -43 -6 -7 -18 -11 -25 -9 -8 4 -15 -3 -18 -18 -2 -13 -5 7 -6 45 -1 43 3
67 10 67 7 0 9 -10 7 -24z m484 -20 c-5 -45 -24 -48 -21 -3 3 38 8 49 18 43 4
-3 5 -21 3 -40z m7683 33 c11 -17 -1 -21 -15 -4 -8 9 -8 15 -2 15 6 0 14 -5
17 -11z m-7778 -81 c-2 -18 -4 -6 -4 27 0 33 2 48 4 33 2 -15 2 -42 0 -60z
m2228 72 c3 -5 1 -10 -4 -10 -6 0 -11 5 -11 10 0 6 2 10 4 10 3 0 8 -4 11 -10z
m312 4 c-3 -3 -12 -4 -19 -1 -8 3 -5 6 6 6 11 1 17 -2 13 -5z m260 -6 c-15 -9
-83 -9 -117 1 -15 5 5 7 52 7 42 0 71 -4 65 -8z m50 6 c-3 -3 -12 -4 -19 -1
-8 3 -5 6 6 6 11 1 17 -2 13 -5z m313 -4 c0 -5 -8 -10 -17 -10 -15 0 -16 2 -3
10 19 12 20 12 20 0z m-3103 -22 c-3 -8 -6 -5 -6 6 -1 11 2 17 5 13 3 -3 4
-12 1 -19z m2578 12 c-3 -5 -15 -10 -26 -10 -10 0 -19 -6 -20 -12 0 -10 -2
-10 -6 0 -2 6 -12 13 -21 13 -9 1 -1 5 18 9 52 11 62 11 55 0z m-135 -21 c0
-5 11 -9 25 -9 16 0 25 -6 25 -15 0 -8 -6 -15 -14 -15 -8 0 -23 -3 -33 -7 -16
-6 -17 -5 -3 13 8 10 11 16 6 12 -12 -10 -46 10 -46 26 0 9 7 12 20 9 11 -3
20 -9 20 -14z m500 9 c0 6 5 12 12 12 8 0 6 -6 -4 -17 -17 -17 -82 -27 -72
-11 3 5 14 6 25 3 14 -5 19 -2 19 12 0 15 2 16 10 3 6 -10 10 -11 10 -2z m100
2 c0 -5 -5 -10 -11 -10 -5 0 -7 5 -4 10 3 6 8 10 11 10 2 0 4 -4 4 -10z m4460
-12 c0 -6 -6 -5 -15 2 -8 7 -15 14 -15 16 0 2 7 1 15 -2 8 -4 15 -11 15 -16z
m95 -5 c-5 -23 -4 -26 6 -15 7 6 23 12 36 12 13 0 23 3 23 8 0 4 38 8 85 8
l85 1 0 -26 c0 -45 -23 -76 -52 -73 -18 2 -32 -5 -46 -22 -13 -18 -26 -24 -43
-20 -19 3 -20 3 -5 -4 15 -7 12 -10 -21 -20 -22 -7 -51 -13 -64 -13 -18 -1
-15 -4 11 -9 l35 -7 -40 -2 c-22 -1 -49 -7 -60 -12 -16 -7 -14 -8 10 -3 21 4
27 2 20 -5 -9 -9 -139 -28 -457 -68 l-48 -6 0 96 c0 111 -18 97 165 121 338
45 343 46 338 67 -4 13 0 19 12 19 14 0 16 -6 10 -27z m-5118 11 c-3 -3 -12
-4 -19 -1 -8 3 -5 6 6 6 11 1 17 -2 13 -5z m683 -18 c-26 -24 -110 -68 -110
-58 0 6 24 24 53 41 55 32 81 40 57 17z m-2110 -23 c0 -23 13 -25 16 -2 3 22
5 23 14 9 8 -12 12 -13 19 -2 6 10 14 11 27 4 11 -5 33 -14 49 -19 28 -8 30
-12 31 -56 1 -29 -3 -50 -10 -51 -44 -12 -145 -29 -166 -28 -18 1 -21 -1 -11
-7 11 -7 10 -11 -7 -20 -26 -14 -62 -14 -62 -1 0 6 9 10 20 10 17 0 19 2 8 14
-11 11 -15 11 -28 -3 -9 -10 -27 -15 -45 -13 -17 2 -42 -1 -55 -6 -21 -8 -17
-10 24 -9 32 0 53 -5 60 -14 6 -8 29 -22 51 -30 22 -9 39 -20 38 -25 -1 -5 13
-10 31 -11 23 -2 33 2 33 12 0 8 -3 12 -7 10 -14 -9 -81 16 -74 27 4 6 3 9 -2
6 -5 -3 -18 -2 -29 3 -15 7 -11 8 17 6 21 -2 35 -1 33 1 -3 3 10 13 28 22 22
12 36 15 45 8 8 -7 12 -7 12 0 0 11 30 23 68 28 17 2 22 -3 22 -21 0 -13 -8
-29 -17 -35 -17 -11 -17 -11 0 -6 11 3 17 0 17 -9 0 -11 -9 -15 -30 -13 -16 1
-30 6 -30 10 0 4 -4 8 -10 8 -5 0 -10 -7 -10 -15 0 -8 -5 -15 -11 -15 -6 0 -9
-6 -6 -13 11 -28 -38 -43 -82 -25 -14 6 -36 10 -47 9 -24 -2 -57 25 -49 40 4
5 -3 9 -15 9 -20 0 -20 -1 -4 -17 13 -13 14 -18 3 -22 -7 -2 -15 1 -17 7 -2 6
-10 8 -18 5 -26 -10 -14 -23 29 -30 l42 -7 -33 -7 c-19 -4 -43 -2 -57 5 -25
11 -33 26 -14 26 5 0 7 5 4 10 -3 6 -19 10 -35 10 -16 0 -33 7 -38 16 -6 11
-11 13 -16 5 -4 -6 -17 -12 -29 -12 -20 -1 -20 -2 -2 -6 83 -19 95 -24 95 -43
0 -22 -21 -26 -51 -10 -13 7 -19 7 -19 0 0 -5 7 -10 15 -10 8 0 15 -4 15 -10
0 -13 -57 -13 -62 -1 -1 5 -15 7 -30 4 -15 -3 -26 -9 -23 -13 3 -5 15 -6 27
-2 15 4 19 2 13 -7 -4 -8 -20 -11 -37 -9 -16 3 -31 1 -34 -4 -3 -4 -21 -8 -40
-8 -37 0 -37 -2 -34 -71 1 -39 -9 -53 -32 -44 -19 7 -11 76 10 93 14 11 14 12
-1 12 -15 0 -17 11 -16 79 1 90 -7 81 99 96 25 4 53 9 63 11 28 8 20 24 -13
24 -16 0 -30 -4 -30 -9 0 -4 -12 -7 -27 -4 -25 3 -26 2 -8 -7 16 -8 9 -9 -29
-6 -32 2 -44 1 -35 -6 10 -6 7 -8 -11 -6 -28 3 -27 7 -29 -102 -1 -51 -5 -80
-12 -80 -10 0 -10 61 1 272 0 3 8 4 18 1 16 -4 18 0 14 27 -3 22 1 35 14 45
29 22 34 18 34 -25 0 -29 4 -40 15 -40 10 0 15 10 15 31 0 40 20 59 62 57 30
-1 34 -4 34 -27 -1 -38 18 -42 22 -5 3 31 3 32 58 30 48 -1 54 -3 50 -19 -3
-11 0 -17 7 -14 7 2 12 10 12 17 0 16 30 28 73 29 22 1 32 -4 32 -14 0 -8 6
-15 14 -15 9 0 12 7 9 20 -5 18 0 20 36 20 38 0 41 -2 41 -27z m5390 17 c0 -5
-2 -10 -4 -10 -3 0 -8 5 -11 10 -3 6 -1 10 4 10 6 0 11 -4 11 -10z m90 0 c13
-8 13 -10 -2 -10 -9 0 -20 5 -23 10 -8 13 5 13 25 0z m-7057 -7 c-7 -2 -19 -2
-25 0 -7 3 -2 5 12 5 14 0 19 -2 13 -5z m277 -24 c0 -5 -7 -9 -15 -9 -9 0 -15
9 -15 21 0 18 2 19 15 9 8 -7 15 -16 15 -21z m217 -76 c-2 -21 -4 -4 -4 37 0
41 2 58 4 38 2 -21 2 -55 0 -75z m2448 96 c4 -6 5 -13 1 -16 -8 -8 -56 6 -56
17 0 13 47 13 55 -1z m3973 4 c18 -4 20 -8 10 -14 -9 -6 -6 -9 12 -9 20 0 22
-2 10 -10 -23 -15 -50 -12 -44 4 3 9 -5 18 -23 24 -21 8 -23 11 -8 11 11 0 31
-2 43 -6z m-4223 -23 c16 -17 16 -20 3 -15 -9 4 -19 13 -22 21 -7 19 -2 18 19
-6z m126 -10 c6 0 7 -5 4 -11 -5 -6 -12 -4 -20 8 -7 10 -10 22 -7 28 4 5 8 2
10 -7 2 -10 8 -18 13 -18z m4047 7 c29 -14 28 -22 -3 -25 -16 -1 -25 3 -25 13
0 8 -6 15 -14 15 -8 0 -17 4 -20 9 -7 11 29 4 62 -12z m-6321 -84 c-2 -21 -4
-6 -4 32 0 39 2 55 4 38 2 -18 2 -50 0 -70z m2523 66 c0 -10 -4 -19 -10 -19
-5 0 -10 12 -10 26 0 14 4 23 10 19 6 -3 10 -15 10 -26z m320 11 c-8 -5 -17
-7 -19 -4 -3 3 1 9 9 14 8 5 17 7 19 4 3 -3 -1 -9 -9 -14z m3321 0 c6 0 7 5 4
10 -4 6 5 10 19 10 17 0 26 -6 26 -16 0 -8 -4 -13 -9 -10 -15 9 -42 -5 -34
-18 4 -6 -1 -5 -10 3 -9 7 -17 21 -16 30 0 10 2 11 6 4 2 -7 9 -13 14 -13z
m-908 3 c-7 -2 -21 -2 -30 0 -10 3 -4 5 12 5 17 0 24 -2 18 -5z m857 -18 c0
-7 8 -15 18 -17 9 -3 -10 -6 -43 -8 -90 -4 -107 -3 -140 9 -23 10 -26 14 -15
21 18 11 101 13 98 3 -2 -5 2 -9 7 -9 6 -1 9 3 7 8 -2 7 9 8 28 4 22 -4 29 -2
24 6 -4 7 -3 8 4 4 7 -4 12 -13 12 -21z m135 4 c0 -8 -11 -15 -25 -16 -14 -1
-17 1 -8 3 11 3 15 11 11 21 -4 11 -2 14 8 11 8 -3 14 -11 14 -19z m-6361 -33
c-3 -17 -8 -42 -11 -56 l-6 -25 -8 30 c-5 18 -5 33 1 39 6 6 10 15 10 21 0 5
-5 3 -10 -5 -8 -12 -10 -9 -10 12 0 21 4 25 20 21 15 -4 18 -11 14 -37z m2251
24 c3 -5 1 -10 -4 -10 -6 0 -11 5 -11 10 0 6 2 10 4 10 3 0 8 -4 11 -10z m55
6 c0 -2 -7 -7 -16 -10 -8 -3 -12 -2 -9 4 6 10 25 14 25 6z m604 -15 c-21 -19
-87 -54 -80 -43 10 16 79 61 85 56 3 -3 0 -8 -5 -13z m2294 12 c-10 -2 -26 -2
-35 0 -10 3 -2 5 17 5 19 0 27 -2 18 -5z m-101 -9 c-3 -3 -12 -4 -19 -1 -8 3
-5 6 6 6 11 1 17 -2 13 -5z m1490 0 c-3 -3 -12 -4 -19 -1 -8 3 -5 6 6 6 11 1
17 -2 13 -5z m-6890 -81 c-2 -16 -4 -3 -4 27 0 30 2 43 4 28 2 -16 2 -40 0
-55z m3253 62 c0 -9 -6 -12 -15 -9 -8 4 -12 10 -9 15 8 14 24 10 24 -6z m600
-32 c0 -17 -6 -23 -22 -24 -17 -1 -19 -2 -5 -6 9 -2 17 -9 17 -15 0 -7 -16 -8
-47 -3 -27 4 -71 8 -99 10 -52 2 -74 10 -74 25 0 4 7 11 16 14 8 3 12 2 9 -4
-10 -17 7 -11 20 7 13 17 51 11 40 -7 -4 -6 1 -7 10 -3 13 5 14 7 3 14 -9 6
-7 9 10 9 12 0 22 -3 22 -7 0 -5 11 -13 24 -19 20 -9 23 -9 19 2 -3 8 -12 14
-20 14 -8 0 -11 5 -8 10 3 6 19 10 36 10 16 0 29 5 29 13 0 22 20 -17 20 -40z
m2843 32 c1 -6 -13 -11 -30 -13 -18 -2 -33 1 -33 7 0 6 6 8 14 5 8 -3 17 0 21
6 8 13 26 9 28 -5z m73 2 c4 -4 16 -7 26 -7 10 0 18 -4 18 -10 0 -5 -2 -10 -4
-10 -8 0 -76 31 -76 34 0 6 29 1 36 -7z m684 -86 l0 -99 -47 -5 c-76 -7 -392
-46 -588 -72 -99 -13 -200 -25 -225 -27 l-45 -3 -3 65 c-4 99 -4 103 5 110 9
7 53 14 503 74 102 14 230 30 329 41 18 2 36 6 39 9 3 3 11 6 19 6 10 0 13
-23 13 -99z m-6905 63 c2 -30 -12 -64 -27 -64 -9 0 -9 3 2 10 13 9 13 10 0 10
-12 0 -12 2 -2 9 11 7 11 9 -1 14 -16 6 -31 -18 -21 -34 3 -5 0 -9 -6 -9 -7 0
-9 13 -4 38 9 48 10 49 35 48 15 -1 23 -8 24 -22z m2835 11 c-14 -17 -40 -20
-40 -6 0 8 18 16 44 20 5 0 3 -6 -4 -14z m1873 8 c-7 -2 -21 -2 -30 0 -10 3
-4 5 12 5 17 0 24 -2 18 -5z m-4577 -23 c0 -11 -4 -20 -8 -20 -4 0 -8 5 -8 10
0 6 -7 10 -15 10 -13 0 -14 -4 -5 -20 6 -11 18 -20 27 -20 14 0 15 -15 9 -132
-4 -73 -10 -136 -14 -140 -4 -3 -27 -2 -52 3 -25 6 -61 13 -80 15 -80 11 -77
9 -76 66 l1 53 85 15 c47 9 94 21 105 28 23 14 7 12 -139 -14 -43 -8 -79 -14
-80 -14 -7 0 2 62 10 69 5 5 54 17 109 26 62 12 92 21 79 24 -13 4 -20 13 -18
24 1 9 -3 17 -9 17 -27 1 20 20 48 20 24 0 31 -4 31 -20z m2279 0 c10 -11 14
-20 9 -20 -12 1 -44 25 -44 34 0 12 17 6 35 -14z m3545 -1 c0 -5 -9 -9 -20 -9
-22 0 -27 16 -7 23 15 5 27 -1 27 -14z m90 -1 c0 -6 -7 -7 -16 -4 -9 3 -18 6
-20 6 -3 0 -3 4 1 10 7 11 35 2 35 -12z m280 12 c0 -5 -12 -10 -27 -9 l-28 1
25 8 c14 4 26 8 28 9 1 1 2 -3 2 -9z m60 6 c0 -2 -7 -6 -15 -10 -8 -3 -15 -1
-15 4 0 6 7 10 15 10 8 0 15 -2 15 -4z m-2160 -39 c0 -5 -4 -5 -10 -2 -5 3
-10 14 -10 23 0 15 2 15 10 2 5 -8 10 -19 10 -23z m292 6 c-5 -25 -6 -25 -13
-8 -11 29 -10 35 5 35 9 0 12 -8 8 -27z m1463 17 c-3 -6 4 -14 17 -19 l23 -10
-22 0 c-13 -1 -23 1 -23 3 0 2 -3 11 -6 20 -3 9 -1 16 6 16 6 0 8 -5 5 -10z
m220 -8 c-3 -3 -11 0 -18 7 -9 10 -8 11 6 5 10 -3 15 -9 12 -12z m-3450 -12
c0 -7 -6 -14 -13 -16 -7 -1 -8 0 -2 3 7 3 7 10 -2 21 -11 13 -11 14 2 10 8 -2
15 -11 15 -18z m-258 -17 c-8 -7 -37 9 -31 19 3 5 12 4 20 -3 8 -6 13 -14 11
-16z m570 21 c-3 -3 -12 -4 -19 -1 -8 3 -5 6 6 6 11 1 17 -2 13 -5z m3253 2
c0 -2 -7 -6 -15 -10 -8 -3 -15 -1 -15 4 0 6 7 10 15 10 8 0 15 -2 15 -4z
m-3265 -26 c32 -11 69 -20 82 -20 19 0 23 -5 23 -30 0 -22 -5 -30 -17 -30 -10
0 -14 4 -8 8 21 15 16 35 -7 29 -13 -3 -73 -11 -134 -18 l-111 -11 -57 30
c-43 22 -52 31 -40 36 10 4 21 1 26 -6 6 -10 8 -10 8 2 0 11 3 11 12 2 17 -17
39 -15 32 2 -4 11 6 16 43 19 26 2 57 4 69 5 11 1 47 -7 79 -18z m-3458 -27
c-3 -10 -5 -4 -5 12 0 17 2 24 5 18 2 -7 2 -21 0 -30z m4617 -1 c1 -21 -2 -28
-11 -25 -8 3 -10 11 -4 21 4 10 6 24 3 32 -2 8 -1 12 3 8 4 -4 8 -20 9 -36z
m3349 31 c-7 -2 -19 -2 -25 0 -7 3 -2 5 12 5 14 0 19 -2 13 -5z m-7750 -18
c-3 -9 -8 -14 -10 -11 -3 3 -2 9 2 15 9 16 15 13 8 -4z m2460 8 c-7 -2 -19 -2
-25 0 -7 3 -2 5 12 5 14 0 19 -2 13 -5z m2174 1 c-3 -3 -12 -4 -19 -1 -8 3 -5
6 6 6 11 1 17 -2 13 -5z m-2057 -11 c0 -5 -5 -15 -10 -23 -8 -12 -10 -11 -10
8 0 12 5 22 10 22 6 0 10 -3 10 -7z m301 -6 c-6 -8 -8 -17 -4 -20 3 -4 -1 -7
-10 -7 -21 0 -21 4 -1 24 19 19 31 21 15 3z m1836 7 c-3 -3 -12 -4 -19 -1 -8
3 -5 6 6 6 11 1 17 -2 13 -5z m-1887 -30 c0 -2 -7 -4 -15 -4 -8 0 -15 4 -15
10 0 5 7 7 15 4 8 -4 15 -8 15 -10z m150 -15 c0 -8 -7 -7 -47 7 -16 6 -16 7 2
14 20 7 45 -4 45 -21z m514 6 c-4 -8 -13 -15 -21 -15 -8 0 -12 4 -9 9 4 5 0
12 -6 14 -7 3 -1 6 14 6 20 1 26 -3 22 -14z m-3506 -10 c12 17 47 12 46 -8 -1
-9 -2 -49 -3 -88 -1 -61 -3 -70 -18 -67 -24 4 -31 66 -9 74 24 9 19 26 -6 22
-18 -2 -24 -11 -29 -43 -4 -29 -7 -16 -7 45 -1 59 1 80 8 70 6 -9 13 -11 18
-5z m4345 8 c-7 -2 -21 -2 -30 0 -10 3 -4 5 12 5 17 0 24 -2 18 -5z m-100 -10
c-7 -2 -19 -2 -25 0 -7 3 -2 5 12 5 14 0 19 -2 13 -5z m1782 -3 c4 -6 -14 -9
-47 -8 l-53 1 45 7 c25 4 46 8 47 8 1 1 5 -2 8 -8z m62 4 c-3 -3 -12 -4 -19
-1 -8 3 -5 6 6 6 11 1 17 -2 13 -5z m-3182 -31 c-21 -15 -30 -10 -22 11 4 10
13 13 23 9 15 -6 15 -7 -1 -20z m1258 20 c-7 -2 -19 -2 -25 0 -7 3 -2 5 12 5
14 0 19 -2 13 -5z m162 -13 c3 -5 1 -10 -4 -10 -6 0 -11 5 -11 10 0 6 2 10 4
10 3 0 8 -4 11 -10z m42 -12 c-3 -8 -6 -5 -6 6 -1 11 2 17 5 13 3 -3 4 -12 1
-19z m1531 15 c-10 -2 -28 -2 -40 0 -13 2 -5 4 17 4 22 1 32 -1 23 -4z m-3511
-9 c-3 -3 -12 -4 -19 -1 -8 3 -5 6 6 6 11 1 17 -2 13 -5z m1119 -6 c3 -3 -20
-5 -50 -5 -30 1 -52 5 -49 10 5 9 89 4 99 -5z m501 6 c-3 -3 -12 -4 -19 -1 -8
3 -5 6 6 6 11 1 17 -2 13 -5z m233 -16 c0 -18 -2 -20 -9 -8 -6 8 -7 18 -5 22
9 14 14 9 14 -14z m50 18 c0 -3 -4 -8 -10 -11 -5 -3 -10 -1 -10 4 0 6 5 11 10
11 6 0 10 -2 10 -4z m1519 0 c-2 -2 -31 -6 -64 -9 -37 -3 -51 -2 -35 3 25 8
107 13 99 6z m146 -6 c4 -6 -9 -10 -32 -9 -38 1 -38 1 -8 9 17 4 31 8 32 9 1
0 5 -3 8 -9z m35 0 c0 -5 -5 -10 -11 -10 -5 0 -7 5 -4 10 3 6 8 10 11 10 2 0
4 -4 4 -10z m-2707 -7 c-7 -2 -19 -2 -25 0 -7 3 -2 5 12 5 14 0 19 -2 13 -5z
m867 -3 c0 -5 -5 -10 -11 -10 -5 0 -7 5 -4 10 3 6 8 10 11 10 2 0 4 -4 4 -10z
m1960 -20 c-29 -8 -40 -4 -40 15 0 11 6 12 33 3 32 -12 32 -12 7 -18z m-4911
8 c11 -10 13 -10 7 0 -4 7 -1 12 8 12 9 0 16 -7 16 -15 0 -8 -8 -15 -19 -15
-10 0 -24 7 -31 15 -15 18 1 20 19 3z m1999 -7 c3 -8 -1 -12 -9 -9 -7 2 -15
10 -17 17 -3 8 1 12 9 9 7 -2 15 -10 17 -17z m1119 -13 c-3 -7 -5 -2 -5 12 0
14 2 19 5 13 2 -7 2 -19 0 -25z m1533 18 c-12 -5 -33 -5 -52 1 -31 9 -30 10
20 9 40 -1 47 -3 32 -10z m320 4 c0 -5 -7 -10 -15 -10 -8 0 -15 5 -15 10 0 6
7 10 15 10 8 0 15 -4 15 -10z m-3026 -16 c5 -13 3 -14 -6 -6 -7 5 -22 12 -33
15 -16 4 -14 5 6 6 17 1 29 -5 33 -15z m1133 -6 c-3 -8 -6 -5 -6 6 -1 11 2 17
5 13 3 -3 4 -12 1 -19z m1450 16 c-3 -3 -12 -4 -19 -1 -8 3 -5 6 6 6 11 1 17
-2 13 -5z m323 -6 c0 -4 -11 -8 -25 -8 -20 0 -25 -5 -25 -25 0 -14 -4 -25 -10
-25 -5 0 -10 12 -10 26 0 25 -2 26 -42 20 -24 -3 -76 -8 -115 -12 -65 -6 -73
-9 -73 -28 -2 -89 -13 -312 -16 -315 -2 -2 -4 75 -4 172 0 108 -4 177 -10 177
-5 0 -7 -6 -4 -14 3 -8 0 -17 -6 -21 -8 -5 -11 0 -8 15 3 21 9 23 83 27 44 2
105 7 135 12 68 10 130 9 130 -1z m-3095 -8 c4 -6 11 -7 17 -4 7 4 8 2 4 -5
-6 -9 -12 -9 -24 1 -10 7 -19 14 -21 15 -2 2 1 3 7 3 6 0 14 -5 17 -10z m502
4 c-3 -3 -12 -4 -19 -1 -8 3 -5 6 6 6 11 1 17 -2 13 -5z m443 -4 c0 -5 -5 -10
-11 -10 -5 0 -7 5 -4 10 3 6 8 10 11 10 2 0 4 -4 4 -10z m-3830 -50 c0 -22 -4
-40 -9 -40 -6 0 -9 18 -8 40 1 22 5 40 9 40 4 0 8 -18 8 -40z m3175 30 c8 -13
-5 -13 -25 0 -13 8 -13 10 2 10 9 0 20 -4 23 -10z m902 -82 c-2 -18 -4 -4 -4
32 0 36 2 50 4 33 2 -18 2 -48 0 -65z m-3137 57 c-8 -10 -9 -15 -1 -15 6 0 11
-4 11 -10 0 -5 -6 -10 -14 -10 -8 0 -18 -5 -22 -12 -5 -7 0 -9 14 -6 12 3 21
3 20 -1 0 -3 1 -8 2 -11 14 -36 -8 -75 -37 -65 -7 2 -15 0 -18 -4 -9 -15 -44
0 -38 15 5 15 33 20 33 6 0 -4 9 -8 20 -9 12 -1 20 4 20 14 0 9 -3 13 -6 10
-4 -3 -15 -2 -25 3 -11 7 -27 6 -45 0 -33 -13 -39 -8 -25 19 7 12 7 22 2 26
-5 3 -8 17 -7 32 3 22 9 27 37 29 25 3 30 1 19 -6 -8 -5 -11 -10 -6 -10 4 0 0
-8 -11 -17 -10 -10 -14 -14 -7 -10 7 4 22 10 34 12 31 6 37 14 20 26 -11 8
-10 9 8 4 14 -4 22 -2 22 6 0 7 3 9 6 6 4 -4 1 -13 -6 -22z m178 -21 c2 -24
-2 -34 -13 -35 -8 -1 -21 -2 -27 -3 -7 -1 -16 3 -20 9 -5 6 -11 5 -17 -4 -5
-8 -21 -16 -36 -18 -21 -3 -26 0 -23 14 2 13 11 17 31 16 15 -1 27 3 27 9 0 7
-13 8 -35 5 -21 -3 -33 -2 -30 4 4 5 1 9 -4 9 -6 0 -11 4 -11 9 0 5 11 8 25 7
13 -2 22 1 19 5 -3 5 2 9 11 9 9 0 13 -4 10 -10 -3 -5 -2 -10 3 -10 6 0 12 6
15 13 3 9 17 12 39 9 31 -3 34 -7 36 -38z m2919 24 c-3 -8 -6 -5 -6 6 -1 11 2
17 5 13 3 -3 4 -12 1 -19z m-90 -10 c-3 -8 -6 -5 -6 6 -1 11 2 17 5 13 3 -3 4
-12 1 -19z m260 -115 c-2 -27 -3 -5 -3 47 0 52 1 74 3 48 2 -27 2 -69 0 -95z
m-3415 90 c6 -47 0 -73 -17 -73 -9 0 -11 13 -8 43 l5 44 -33 -4 c-77 -9 -79
-10 -79 -53 0 -23 -5 -40 -11 -40 -6 0 -8 7 -5 16 3 9 6 28 6 44 0 26 5 29 58
43 80 21 79 21 84 -20z m2228 27 c0 -5 -2 -10 -4 -10 -3 0 -8 5 -11 10 -3 6
-1 10 4 10 6 0 11 -4 11 -10z m363 -5 c-3 -9 -8 -14 -10 -11 -3 3 -2 9 2 15 9
16 15 13 8 -4z m784 -22 c-3 -10 -5 -4 -5 12 0 17 2 24 5 18 2 -7 2 -21 0 -30z
m-1557 23 c0 -3 -4 -8 -10 -11 -5 -3 -10 -1 -10 4 0 6 5 11 10 11 6 0 10 -2
10 -4z m614 -31 c3 -8 1 -15 -3 -15 -5 0 -11 7 -15 15 -3 8 -1 15 3 15 5 0 11
-7 15 -15z m2701 -32 c-7 -64 -15 -67 -15 -5 0 29 4 52 10 52 5 0 7 -20 5 -47z
m-5453 -23 c-6 -41 -12 -38 -12 6 0 19 4 33 8 30 5 -3 7 -19 4 -36z m2948 20
c0 -5 -2 -10 -4 -10 -3 0 -8 5 -11 10 -3 6 -1 10 4 10 6 0 11 -4 11 -10z
m-2250 -4 c0 -11 -19 -15 -25 -6 -3 5 1 10 9 10 9 0 16 -2 16 -4z m-73 -22
c-3 -3 -12 -4 -19 -1 -8 3 -5 6 6 6 11 1 17 -2 13 -5z m-312 -34 c3 -6 3 -20
-1 -33 -7 -21 -7 -21 -15 -2 -4 11 -8 26 -8 33 -1 14 15 16 24 2z m307 -51
c-5 -33 -5 -33 -35 -17 -12 6 -28 14 -36 18 -8 3 -17 12 -19 19 -3 10 4 11 28
6 20 -4 30 -3 27 2 -4 6 3 8 16 6 19 -4 23 -10 19 -34z m61 7 c12 2 16 2 10
-2 -7 -3 -13 -17 -13 -31 l0 -26 -19 22 c-12 14 -17 30 -13 44 5 17 7 18 10 6
2 -11 11 -15 25 -13z m4774 -41 c-2 -55 -17 -60 -17 -7 0 33 6 52 16 52 1 0 2
-20 1 -45z m-4910 10 c2 -6 -15 -9 -42 -7 -25 2 -45 8 -45 14 0 12 82 6 87 -7z
m-47 -165 c0 -5 -12 -10 -27 -10 -16 0 -53 -3 -83 -6 -39 -5 -52 -3 -45 4 6 6
37 13 70 15 33 2 66 4 73 5 6 1 12 -2 12 -8z m170 -25 c0 -10 -11 -15 -35 -15
-41 0 -47 17 -7 23 15 2 30 5 35 6 4 0 7 -6 7 -14z m-620 -9 c0 -2 -7 -6 -15
-10 -8 -3 -15 -1 -15 4 0 6 7 10 15 10 8 0 15 -2 15 -4z m375 -6 c-3 -5 -1
-10 4 -10 6 0 11 5 11 10 0 6 17 10 38 10 35 -1 36 -2 18 -15 -13 -10 -43 -15
-83 -15 -68 0 -87 16 -25 23 20 2 38 4 40 5 2 1 0 -2 -3 -8z"/>
<path d="M11176 1793 c-6 -14 -5 -15 5 -6 7 7 10 15 7 18 -3 3 -9 -2 -12 -12z"/>
<path d="M6075 1560 c4 -6 11 -8 16 -5 14 9 11 15 -7 15 -8 0 -12 -5 -9 -10z"/>
<path d="M9368 1793 c7 -3 16 -2 19 1 4 3 -2 6 -13 5 -11 0 -14 -3 -6 -6z"/>
<path d="M9625 1784 c-38 -7 -80 -16 -92 -19 l-23 -5 0 -289 c0 -158 2 -290 5
-292 2 -3 54 2 115 10 l110 16 0 143 c0 134 -1 144 -17 137 -10 -5 -43 -9 -73
-10 -30 -1 -73 -5 -95 -8 -47 -8 -37 -3 23 13 l43 11 -4 42 c-2 23 -8 41 -13
41 -5 -1 -27 -4 -49 -8 -28 -4 -34 -3 -20 4 11 5 29 9 40 9 35 2 48 16 36 39
-8 15 -8 22 2 25 25 11 -18 26 -58 22 -33 -4 -35 -3 -15 4 14 5 37 12 53 15
23 6 27 12 29 44 1 37 1 37 5 5 4 -30 11 -36 41 -32 4 1 6 4 5 8 -1 4 14 5 33
3 l34 -4 0 46 c0 53 2 53 -115 30z"/>
<path d="M9365 1737 l-110 -22 -2 -288 c-2 -219 1 -287 10 -287 7 0 58 7 115
17 l102 16 0 294 c0 161 -1 293 -2 292 -2 0 -52 -11 -113 -22z"/>
<path d="M9658 1682 c-21 -3 -28 -9 -28 -25 0 -27 19 -61 21 -37 0 10 3 8 9
-5 8 -18 9 -17 9 7 1 14 -4 28 -11 30 -8 3 -6 7 5 11 22 8 43 -28 28 -47 -8
-9 -7 -13 4 -13 8 0 15 5 15 11 0 6 5 5 12 -2 16 -16 8 -21 -43 -30 -46 -8
-45 -6 -41 -69 1 -15 8 -23 20 -23 10 0 29 10 42 23 14 12 28 21 32 20 5 -2 8
33 8 77 l0 80 -27 -2 c-16 -2 -40 -4 -55 -6z m37 -122 c-3 -5 -16 -10 -28 -10
-18 0 -19 2 -7 10 20 13 43 13 35 0z"/>
<path d="M10955 1820 c-3 -5 1 -10 10 -10 9 0 13 5 10 10 -3 6 -8 10 -10 10
-2 0 -7 -4 -10 -10z"/>
<path d="M11621 1834 c0 -11 3 -14 6 -6 3 7 2 16 -1 19 -3 4 -6 -2 -5 -13z"/>
<path d="M6357 1783 c-10 -9 -9 -23 2 -23 5 0 11 7 15 15 5 15 -5 20 -17 8z"/>
<path d="M6468 1783 c7 -3 16 -2 19 1 4 3 -2 6 -13 5 -11 0 -14 -3 -6 -6z"/>
<path d="M6470 1695 c-7 -9 -8 -15 -2 -15 5 0 12 7 16 15 3 8 4 15 2 15 -2 0
-9 -7 -16 -15z"/>
<path d="M11647 1739 c7 -7 15 -10 18 -7 3 3 -2 9 -12 12 -14 6 -15 5 -6 -5z"/>
<path d="M11071 1616 c-9 -10 -8 -15 2 -19 8 -3 13 3 13 14 0 23 0 23 -15 5z"/>
<path d="M4632 1215 c0 -16 2 -22 5 -12 2 9 2 23 0 30 -3 6 -5 -1 -5 -18z"/>
<path d="M4189 1367 l-36 -10 -7 -151 c-11 -266 -10 -291 5 -287 8 2 31 6 52
8 l37 6 0 51 c0 28 3 129 6 224 7 189 11 178 -57 159z"/>
<path d="M4295 1190 c3 -5 8 -10 11 -10 2 0 4 5 4 10 0 6 -5 10 -11 10 -5 0
-7 -4 -4 -10z"/>
<path d="M7384 1433 c3 -47 7 -87 8 -88 2 -1 36 26 76 62 58 51 69 65 55 70
-10 3 -40 14 -66 25 -80 31 -80 30 -73 -69z"/>
<path d="M7277 1461 c-33 -27 -59 -52 -59 -57 0 -4 30 -25 66 -45 l66 -38 0
94 c0 52 -3 95 -7 94 -5 0 -34 -22 -66 -48z"/>
<path d="M7495 1383 c-44 -41 -71 -72 -60 -68 11 3 70 16 132 28 61 11 109 25
106 30 -3 5 3 7 13 4 11 -3 37 -2 59 1 l40 8 -103 37 c-57 20 -104 37 -105 37
-1 -1 -38 -35 -82 -77z"/>
<path d="M7082 1308 c-50 -40 -89 -74 -87 -76 2 -2 71 10 153 27 82 17 153 31
158 31 7 0 -54 41 -122 83 -6 4 -52 -26 -102 -65z"/>
<path d="M6768 1233 c6 -2 18 -2 25 0 6 3 1 5 -13 5 -14 0 -19 -2 -12 -5z"/>
<path d="M4737 1244 c-8 -8 1 -24 14 -24 5 0 9 7 9 15 0 15 -12 20 -23 9z"/>
<path d="M8465 1320 c-16 -7 -17 -9 -3 -9 9 -1 20 4 23 9 7 11 7 11 -20 0z"/>
<path d="M8445 1290 c-8 -13 5 -13 25 0 13 8 13 10 -2 10 -9 0 -20 -4 -23 -10z"/>
<path d="M6565 1350 c3 -5 10 -10 16 -10 5 0 9 5 9 10 0 6 -7 10 -16 10 -8 0
-12 -4 -9 -10z"/>
<path d="M11920 1230 c0 -5 7 -10 15 -10 8 0 15 5 15 10 0 6 -7 10 -15 10 -8
0 -15 -4 -15 -10z"/>
<path d="M8660 1190 c0 -5 9 -10 20 -10 11 0 20 5 20 10 0 6 -9 10 -20 10 -11
0 -20 -4 -20 -10z"/>
<path d="M8840 1310 c0 -6 7 -10 15 -10 8 0 15 2 15 4 0 2 -7 6 -15 10 -8 3
-15 1 -15 -4z"/>
<path d="M8858 1283 c7 -3 16 -2 19 1 4 3 -2 6 -13 5 -11 0 -14 -3 -6 -6z"/>
<path d="M12232 1151 c-10 -6 -8 -10 10 -14 41 -12 55 -8 34 8 -23 17 -26 18
-44 6z"/>
<path d="M11766 1105 c-20 -30 -20 -36 -2 -29 8 3 16 16 19 30 5 30 3 30 -17
-1z"/>
<path d="M11740 1049 c0 -5 5 -7 10 -4 6 3 10 8 10 11 0 2 -4 4 -10 4 -5 0
-10 -5 -10 -11z"/>
<path d="M3234 1058 l-39 -39 30 -24 c33 -27 44 -20 45 30 0 17 5 37 11 45 8
11 9 1 5 -39 l-5 -55 29 35 c16 19 29 39 30 45 0 6 -15 18 -34 26 l-33 16 -39
-40z"/>
<path d="M3346 1018 c-10 -13 -26 -31 -35 -41 -15 -17 -14 -18 14 -12 118 27
126 33 73 59 -17 9 -32 16 -32 16 -1 0 -10 -10 -20 -22z"/>
<path d="M3144 1008 l-19 -23 23 19 c21 18 27 26 19 26 -2 0 -12 -10 -23 -22z"/>
<path d="M3133 960 c-23 -21 -40 -40 -37 -42 3 -4 122 22 133 29 6 4 -20 33
-39 43 -12 6 -27 -1 -57 -30z"/>
<path d="M3050 915 c-7 -9 -11 -17 -9 -20 3 -2 10 5 17 15 14 24 10 26 -8 5z"/>
<path d="M4752 1090 c0 -19 2 -27 5 -17 2 9 2 25 0 35 -3 9 -5 1 -5 -18z"/>
<path d="M11275 980 c-18 -8 -17 -9 8 -9 16 -1 26 3 22 9 -3 6 -7 10 -8 9 -1
0 -11 -4 -22 -9z"/>
<path d="M9615 865 l-60 -14 65 6 c36 3 69 9 75 14 12 12 -4 10 -80 -6z"/>
<path d="M9488 843 c6 -2 18 -2 25 0 6 3 1 5 -13 5 -14 0 -19 -2 -12 -5z"/>
<path d="M9408 833 c6 -2 18 -2 25 0 6 3 1 5 -13 5 -14 0 -19 -2 -12 -5z"/>
<path d="M9120 804 l-85 -13 85 6 c79 5 100 9 89 16 -2 2 -42 -3 -89 -9z"/>
<path d="M8927 771 c-9 -11 -9 -13 0 -8 6 4 31 10 55 13 59 8 62 16 5 13 -28
-2 -53 -9 -60 -18z"/>
<path d="M8865 710 c-13 -6 -15 -9 -5 -9 8 0 22 4 30 9 18 12 2 12 -25 0z"/>
<path d="M8785 700 c19 -8 18 -9 -4 -9 -13 -1 -22 -4 -18 -7 3 -3 21 -3 39 1
29 7 30 9 13 16 -28 11 -56 10 -30 -1z"/>
<path d="M8470 670 c12 -8 10 -10 -9 -10 -13 0 -22 -3 -18 -6 3 -3 21 -3 39 1
29 7 30 9 13 16 -28 11 -43 10 -25 -1z"/>
<path d="M8553 653 c9 -2 23 -2 30 0 6 3 -1 5 -18 5 -16 0 -22 -2 -12 -5z"/>
<path d="M8370 640 c0 -5 7 -10 15 -10 8 0 15 5 15 10 0 6 -7 10 -15 10 -8 0
-15 -4 -15 -10z"/>
<path d="M11877 863 c-4 -3 -7 -11 -7 -17 0 -6 5 -5 12 2 6 6 9 14 7 17 -3 3
-9 2 -12 -2z"/>
<path d="M3122 780 c0 -14 2 -19 5 -12 2 6 2 18 0 25 -3 6 -5 1 -5 -13z"/>
<path d="M11190 650 c0 -5 7 -7 15 -4 8 4 15 8 15 10 0 2 -7 4 -15 4 -8 0 -15
-4 -15 -10z"/>
<path d="M4677 698 c-8 -5 -7 -8 5 -8 9 0 18 -7 20 -15 2 -10 6 -8 14 8 8 19
7 23 -8 23 -10 0 -24 -4 -31 -8z"/>
<path d="M4518 668 c-11 -6 -10 -10 2 -17 10 -7 17 -6 22 2 5 8 9 6 14 -6 9
-25 23 -21 16 5 -3 14 -2 19 6 14 7 -4 12 -3 12 3 0 12 -53 11 -72 -1z"/>
<path d="M4600 670 c0 -5 7 -10 16 -10 8 0 12 5 9 10 -3 6 -10 10 -16 10 -5 0
-9 -4 -9 -10z"/>
<path d="M4358 643 c-49 -9 -85 -20 -82 -25 3 -5 13 -6 23 -3 20 9 74 17 124
18 20 0 37 5 37 10 0 4 9 5 20 2 11 -4 20 -2 20 4 0 14 -33 12 -142 -6z"/>
<path d="M4685 592 c-19 -19 16 -30 43 -13 10 6 7 10 -12 13 -14 3 -28 3 -31
0z"/>
<path d="M4345 570 c-8 -13 5 -13 25 0 13 8 13 10 -2 10 -9 0 -20 -4 -23 -10z"/>
<path d="M4648 573 c7 -3 16 -2 19 1 4 3 -2 6 -13 5 -11 0 -14 -3 -6 -6z"/>
<path d="M4188 543 c7 -3 16 -2 19 1 4 3 -2 6 -13 5 -11 0 -14 -3 -6 -6z"/>
<path d="M4270 500 c-14 -11 -20 -20 -13 -20 6 0 15 5 18 10 3 6 15 10 26 10
10 0 19 5 19 10 0 16 -23 11 -50 -10z"/>
<path d="M4345 490 c3 -5 8 -10 11 -10 2 0 4 5 4 10 0 6 -5 10 -11 10 -5 0 -7
-4 -4 -10z"/>
<path d="M3808 603 c6 -2 18 -2 25 0 6 3 1 5 -13 5 -14 0 -19 -2 -12 -5z"/>
<path d="M3688 463 c7 -3 16 -2 19 1 4 3 -2 6 -13 5 -11 0 -14 -3 -6 -6z"/>
<path d="M6678 633 c7 -3 16 -2 19 1 4 3 -2 6 -13 5 -11 0 -14 -3 -6 -6z"/>
<path d="M4460 400 c-13 -8 -12 -10 3 -10 9 0 17 5 17 10 0 12 -1 12 -20 0z"/>
<path d="M4660 430 c-8 -5 -12 -11 -9 -14 3 -3 14 1 25 9 21 16 8 20 -16 5z"/>
<path d="M4625 270 l-30 -6 28 -6 c15 -3 30 -1 33 4 9 13 3 15 -31 8z"/>
<path d="M5585 2970 c3 -5 8 -10 11 -10 2 0 4 5 4 10 0 6 -5 10 -11 10 -5 0
-7 -4 -4 -10z"/>
<path d="M7340 2951 c0 -6 5 -13 10 -16 6 -3 10 1 10 9 0 9 -4 16 -10 16 -5 0
-10 -4 -10 -9z"/>
<path d="M4180 2906 c0 -8 71 -12 76 -4 3 4 -13 8 -35 8 -23 0 -41 -2 -41 -4z"/>
<path d="M4128 2893 c6 -2 18 -2 25 0 6 3 1 5 -13 5 -14 0 -19 -2 -12 -5z"/>
<path d="M6496 2774 c-9 -23 -7 -36 3 -30 12 8 21 46 11 46 -4 0 -11 -7 -14
-16z"/>
<path d="M7381 2764 c0 -11 3 -14 6 -6 3 7 2 16 -1 19 -3 4 -6 -2 -5 -13z"/>
<path d="M7352 2713 c-6 -20 -10 -39 -8 -41 2 -2 7 7 11 20 4 13 11 25 16 28
4 3 4 11 0 18 -5 8 -11 0 -19 -25z"/>
<path d="M6370 2721 c0 -11 -3 -28 -7 -38 -3 -10 -3 -15 1 -12 12 11 25 69 15
69 -5 0 -9 -9 -9 -19z"/>
<path d="M6576 2704 c-5 -14 -4 -15 9 -4 17 14 19 20 6 20 -5 0 -12 -7 -15
-16z"/>
<path d="M6300 2690 c0 -5 5 -10 10 -10 6 0 10 5 10 10 0 6 -4 10 -10 10 -5 0
-10 -4 -10 -10z"/>
<path d="M6470 2688 c0 -7 4 -19 9 -26 7 -11 9 -11 13 0 3 7 -1 19 -8 26 -11
10 -14 10 -14 0z"/>
<path d="M6542 2655 c-9 -20 -9 -23 3 -18 8 3 15 14 15 24 0 25 -5 24 -18 -6z"/>
<path d="M7320 2645 c-7 -9 -11 -18 -8 -20 3 -3 11 1 18 10 7 9 11 18 8 20 -3
3 -11 -1 -18 -10z"/>
<path d="M6222 2620 c0 -19 2 -27 5 -17 2 9 2 25 0 35 -3 9 -5 1 -5 -18z"/>
<path d="M6282 2630 c-14 -23 -17 -89 -3 -74 9 9 26 94 19 94 -2 0 -9 -9 -16
-20z"/>
<path d="M6070 2635 c0 -5 5 -17 10 -25 5 -8 10 -10 10 -5 0 6 -5 17 -10 25
-5 8 -10 11 -10 5z"/>
<path d="M1077 2610 c12 -5 32 -7 44 -5 41 8 32 15 -17 14 -39 0 -44 -2 -27
-9z"/>
<path d="M7286 2581 c-23 -43 -20 -52 5 -12 11 18 18 35 15 38 -2 3 -12 -9
-20 -26z"/>
<path d="M6131 2584 c0 -11 3 -14 6 -6 3 7 2 16 -1 19 -3 4 -6 -2 -5 -13z"/>
<path d="M7230 2554 c4 -33 0 -44 -14 -44 -8 0 -17 6 -20 13 -3 6 -4 3 -1 -9
5 -18 -4 -25 -54 -48 -32 -14 -64 -26 -70 -26 -6 0 -11 -4 -11 -10 0 -14 2
-13 67 15 31 14 63 23 69 21 8 -3 11 1 7 10 -3 7 0 14 7 14 6 0 23 9 36 19 20
16 21 20 8 25 -8 3 -13 10 -9 15 3 5 0 13 -6 16 -6 5 -10 0 -9 -11z"/>
<path d="M9508 2563 c6 -2 12 -11 12 -20 0 -8 7 -13 18 -11 30 6 20 32 -13 34
-16 1 -24 0 -17 -3z"/>
<path d="M6127 2543 c-11 -10 -8 -63 3 -63 6 0 10 16 10 35 0 36 -2 40 -13 28z"/>
<path d="M6650 2530 c0 -5 7 -10 16 -10 8 0 12 5 9 10 -3 6 -10 10 -16 10 -5
0 -9 -4 -9 -10z"/>
<path d="M6270 2509 c0 -11 -4 -17 -10 -14 -6 3 -7 -1 -4 -9 10 -26 24 -18 24
14 0 17 -2 30 -5 30 -3 0 -5 -9 -5 -21z"/>
<path d="M9725 2500 c3 -5 8 -10 11 -10 2 0 4 5 4 10 0 6 -5 10 -11 10 -5 0
-7 -4 -4 -10z"/>
<path d="M6280 2435 c0 -15 4 -24 10 -20 6 3 10 12 10 20 0 8 -4 17 -10 20 -6
4 -10 -5 -10 -20z"/>
<path d="M6611 2444 c0 -11 3 -14 6 -6 3 7 2 16 -1 19 -3 4 -6 -2 -5 -13z"/>
<path d="M6155 2440 c3 -5 8 -10 11 -10 2 0 4 5 4 10 0 6 -5 10 -11 10 -5 0
-7 -4 -4 -10z"/>
<path d="M6253 2415 c0 -22 2 -30 4 -17 2 12 2 30 0 40 -3 9 -5 -1 -4 -23z"/>
<path d="M6966 2415 c-3 -8 -1 -15 4 -15 6 0 10 7 10 15 0 8 -2 15 -4 15 -2 0
-6 -7 -10 -15z"/>
<path d="M6112 2395 c0 -16 2 -22 5 -12 2 9 2 23 0 30 -3 6 -5 -1 -5 -18z"/>
<path d="M58 2403 c7 -3 16 -2 19 1 4 3 -2 6 -13 5 -11 0 -14 -3 -6 -6z"/>
<path d="M10658 2403 c7 -3 16 -2 19 1 4 3 -2 6 -13 5 -11 0 -14 -3 -6 -6z"/>
<path d="M6206 2365 c-3 -8 -1 -15 4 -15 6 0 10 7 10 15 0 8 -2 15 -4 15 -2 0
-6 -7 -10 -15z"/>
<path d="M6622 2360 c0 -14 2 -19 5 -12 2 6 2 18 0 25 -3 6 -5 1 -5 -13z"/>
<path d="M6631 2318 c-1 -9 -7 -19 -13 -21 -21 -9 14 -6 42 3 23 7 23 8 3 9
-12 1 -24 7 -26 14 -4 7 -6 6 -6 -5z"/>
<path d="M6686 2316 c10 -8 21 -12 24 -10 5 6 -21 24 -34 24 -6 0 -1 -6 10
-14z"/>
<path d="M6748 2313 c7 -3 16 -2 19 1 4 3 -2 6 -13 5 -11 0 -14 -3 -6 -6z"/>
<path d="M6500 2291 c0 -5 -10 -12 -22 -14 -17 -3 -14 -5 9 -6 25 -1 31 2 27
14 -7 17 -14 20 -14 6z"/>
<path d="M6548 2283 c6 -2 18 -2 25 0 6 3 1 5 -13 5 -14 0 -19 -2 -12 -5z"/>
<path d="M6390 2260 c-11 -8 -7 -9 15 -4 37 8 45 14 19 14 -10 0 -26 -5 -34
-10z"/>
<path d="M6270 2199 c0 -5 5 -7 10 -4 6 3 10 8 10 11 0 2 -4 4 -10 4 -5 0 -10
-5 -10 -11z"/>
<path d="M6392 2195 c-11 -12 -10 -15 3 -15 8 0 15 7 15 15 0 18 -2 18 -18 0z"/>
<path d="M6305 2190 c-18 -8 -17 -9 8 -9 16 -1 26 3 22 9 -3 6 -7 10 -8 9 -1
0 -11 -4 -22 -9z"/>
<path d="M6012 2170 c0 -14 2 -19 5 -12 2 6 2 18 0 25 -3 6 -5 1 -5 -13z"/>
<path d="M10610 2161 c0 -5 7 -11 15 -15 9 -3 15 0 15 9 0 8 -7 15 -15 15 -8
0 -15 -4 -15 -9z"/>
<path d="M6305 2140 c-3 -5 -2 -10 4 -10 5 0 13 5 16 10 3 6 2 10 -4 10 -5 0
-13 -4 -16 -10z"/>
<path d="M6151 2124 c0 -11 3 -14 6 -6 3 7 2 16 -1 19 -3 4 -6 -2 -5 -13z"/>
<path d="M10575 2110 c3 -5 8 -10 11 -10 2 0 4 5 4 10 0 6 -5 10 -11 10 -5 0
-7 -4 -4 -10z"/>
<path d="M10550 2061 c0 -6 4 -13 10 -16 6 -3 7 1 4 9 -7 18 -14 21 -14 7z"/>
<path d="M7430 1959 c0 -5 5 -7 10 -4 6 3 10 8 10 11 0 2 -4 4 -10 4 -5 0 -10
-5 -10 -11z"/>
<path d="M2940 1239 c0 -5 5 -7 10 -4 6 3 10 8 10 11 0 2 -4 4 -10 4 -5 0 -10
-5 -10 -11z"/>
<path d="M2800 1080 c-6 -11 -8 -20 -6 -20 3 0 10 9 16 20 6 11 8 20 6 20 -3
0 -10 -9 -16 -20z"/>
</g>
</svg>
